<svg xmlns="http://www.w3.org/2000/svg" xmlns:xlink="http://www.w3.org/1999/xlink" width="1040" height="495.91"><rect width="1040" height="495.91" rx="0" ry="0" class="a"></rect><svg height="455.91" viewBox="0 0 100 45.591" width="1000" x="20" xmlns="http://www.w3.org/2000/svg" xmlns:xlink="http://www.w3.org/1999/xlink" y="20"><style>.a{fill:rgb(253,246,227)}.b{font-family:'Fira Code',Monaco,Consolas,Menlo,'Bitstream Vera Sans Mono','Powerline Symbols',monospace}.c{fill:rgb(101,123,131);white-space:pre}.d{fill:transparent}</style><g font-family="&#x27;Fira Code&#x27;,Monaco,Consolas,Menlo,&#x27;Bitstream Vera Sans Mono&#x27;,&#x27;Powerline Symbols&#x27;,monospace" font-size="1.67" class="b"><defs><symbol id="1"><text x="0" y="1.67" class="c">[1]</text><text x="4.008" y="1.67" class="c">&quot;&quot;</text></symbol><symbol id="a"><rect height="22" width="100" x="0" y="0" class="d"></rect></symbol></defs><rect height="45.591" width="100" class="a"></rect><svg x="0" y="0" width="100"><svg x="0"><use xlink:href="#a"></use><text x="0" y="1.67" class="c">$code</text><text x="0" y="3.8409999999999997" class="c">[1]</text><text x="4.008" y="3.8409999999999997" class="c">200</text><text x="0" y="8.183" class="c">$message</text><text x="0" y="10.354" class="c">[1]</text><text x="4.008" y="10.354" class="c">&quot;done</text><text x="10.02" y="10.354" class="c">callr-rs-result-b0f393f895d&quot;</text><text x="0" y="14.696" class="c">$result</text><text x="1.002" y="16.866999999999997" class="c">[1]</text><text x="6.012" y="16.866999999999997" class="c">0.69899292</text><text x="18.035999999999998" y="16.866999999999997" class="c">1.04500406</text><text x="30.059999999999995" y="16.866999999999997" class="c">0.03147569</text><text x="42.083999999999996" y="16.866999999999997" class="c">1.73456005</text><text x="53.105999999999995" y="16.866999999999997" class="c">-0.97205070</text><text x="66.13199999999999" y="16.866999999999997" class="c">1.80030459</text><text x="1.002" y="19.037999999999997" class="c">[7]</text><text x="5.01" y="19.037999999999997" class="c">-0.65083850</text><text x="18.035999999999998" y="19.037999999999997" class="c">0.71880964</text><text x="30.059999999999995" y="19.037999999999997" class="c">1.00163069</text><text x="41.082" y="19.037999999999997" class="c">-0.26644319</text><text x="0" y="23.380000000000003" class="c">$stdout</text><use xlink:href="#1" y="23.880999999999997"></use><text x="0" y="29.893" class="c">$stderr</text><use xlink:href="#1" y="30.394"></use><text x="0" y="36.406" class="c">$error</text><text x="0" y="38.577000000000005" class="c">NULL</text><text x="0" y="42.919" class="c">attr(,&quot;class&quot;)</text><text x="0" y="45.09" class="c">[1]</text><text x="4.008" y="45.09" class="c">&quot;callr_session_result&quot;</text></svg></svg></g></svg></svg>