<svg xmlns="http://www.w3.org/2000/svg" xmlns:xlink="http://www.w3.org/1999/xlink" width="1040" height="148.55"><rect width="1040" height="148.55" rx="0" ry="0" class="a"></rect><svg height="108.55000000000001" viewBox="0 0 100 10.855" width="1000" x="20" xmlns="http://www.w3.org/2000/svg" xmlns:xlink="http://www.w3.org/1999/xlink" y="20"><style>.a{fill:rgb(247,247,247)}.b{font-family:'Fira Code',Monaco,Consolas,Menlo,'Bitstream Vera Sans Mono','Powerline Symbols',monospace}.c{fill:transparent}.d{fill:rgb(181,137,0);font-weight:bold;white-space:pre}.e{fill:rgb(101,123,131);white-space:pre}.f{fill:rgb(181,137,0);white-space:pre}.g{fill:rgb(101,123,131);font-weight:bold;white-space:pre}.h{fill:rgb(0,43,54);white-space:pre}</style><g font-family="&#x27;Fira Code&#x27;,Monaco,Consolas,Menlo,&#x27;Bitstream Vera Sans Mono&#x27;,&#x27;Powerline Symbols&#x27;,monospace" font-size="1.67" class="b"><defs><symbol id="a"><rect height="6" width="100" x="0" y="0" class="c"></rect></symbol></defs><rect height="10.855" width="100" class="a"></rect><svg x="0" y="0" width="100"><svg x="0"><use xlink:href="#a"></use><text x="0" y="1.67" class="d">Error</text><text x="5.01" y="1.67" class="e">:</text><text x="0" y="3.8409999999999997" class="f">!</text><text x="2.004" y="3.8409999999999997" class="e">error</text><text x="8.016" y="3.8409999999999997" class="e">in</text><text x="11.021999999999998" y="3.8409999999999997" class="e">callr</text><text x="17.034" y="3.8409999999999997" class="e">subprocess</text><text x="0" y="6.012" class="g">Caused</text><text x="7.013999999999999" y="6.012" class="g">by</text><text x="10.02" y="6.012" class="g">error</text><text x="16.032" y="6.012" class="e">in</text><text x="19.037999999999997" y="6.012" class="e">`1</text><text x="22.043999999999997" y="6.012" class="e">+</text><text x="24.048" y="6.012" class="e">&quot;A&quot;`:</text><text x="0" y="8.183" class="f">!</text><text x="2.004" y="8.183" class="e">non-numeric</text><text x="14.027999999999999" y="8.183" class="e">argument</text><text x="23.045999999999996" y="8.183" class="e">to</text><text x="26.052" y="8.183" class="e">binary</text><text x="33.065999999999995" y="8.183" class="e">operator</text><text x="0" y="10.354" class="h">Type</text><text x="5.01" y="10.354" class="h">.Last.error</text><text x="17.034" y="10.354" class="h">to</text><text x="20.04" y="10.354" class="h">see</text><text x="24.048" y="10.354" class="h">the</text><text x="28.055999999999997" y="10.354" class="h">more</text><text x="33.065999999999995" y="10.354" class="h">details.</text></svg></svg></g></svg></svg>