<svg xmlns="http://www.w3.org/2000/svg" xmlns:xlink="http://www.w3.org/1999/xlink" width="840" height="191.97"><rect width="840" height="191.97" rx="0" ry="0" class="a"></rect><svg height="151.97" viewBox="0 0 80 15.197" width="800" x="20" xmlns="http://www.w3.org/2000/svg" xmlns:xlink="http://www.w3.org/1999/xlink" y="20"><style>.a{fill:rgb(247,247,247)}.b{font-family:'Fira Code',Monaco,Consolas,Menlo,'Bitstream Vera Sans Mono','Powerline Symbols',monospace}.c{fill:transparent}.d{fill:rgb(101,123,131);white-space:pre}</style><g font-family="&#x27;Fira Code&#x27;,Monaco,Consolas,Menlo,&#x27;Bitstream Vera Sans Mono&#x27;,&#x27;Powerline Symbols&#x27;,monospace" font-size="1.67" class="b"><defs><symbol id="a"><rect height="7" width="80" x="0" y="0" class="c"></rect></symbol></defs><rect height="15.197" width="80" class="a"></rect><svg x="0" y="0" width="80"><svg x="0"><use xlink:href="#a"></use><text font-size="1.67" x="5.01" y="1.67" class="d">speed</text><text font-size="1.67" x="21.041999999999998" y="1.67" class="d">dist</text><text font-size="1.67" x="1.002" y="3.8409999999999997" class="d">Min.</text><text font-size="1.67" x="8.016" y="3.8409999999999997" class="d">:</text><text font-size="1.67" x="10.02" y="3.8409999999999997" class="d">4.0</text><text font-size="1.67" x="16.032" y="3.8409999999999997" class="d">Min.</text><text font-size="1.67" x="23.045999999999996" y="3.8409999999999997" class="d">:</text><text font-size="1.67" x="26.052" y="3.8409999999999997" class="d">2.00</text><text font-size="1.67" x="1.002" y="6.012" class="d">1st</text><text font-size="1.67" x="5.01" y="6.012" class="d">Qu.:12.0</text><text font-size="1.67" x="16.032" y="6.012" class="d">1st</text><text font-size="1.67" x="20.04" y="6.012" class="d">Qu.:</text><text font-size="1.67" x="25.05" y="6.012" class="d">26.00</text><text font-size="1.67" x="1.002" y="8.183" class="d">Median</text><text font-size="1.67" x="8.016" y="8.183" class="d">:15.0</text><text font-size="1.67" x="16.032" y="8.183" class="d">Median</text><text font-size="1.67" x="23.045999999999996" y="8.183" class="d">:</text><text font-size="1.67" x="25.05" y="8.183" class="d">36.00</text><text font-size="1.67" x="1.002" y="10.354" class="d">Mean</text><text font-size="1.67" x="8.016" y="10.354" class="d">:15.4</text><text font-size="1.67" x="16.032" y="10.354" class="d">Mean</text><text font-size="1.67" x="23.045999999999996" y="10.354" class="d">:</text><text font-size="1.67" x="25.05" y="10.354" class="d">42.98</text><text font-size="1.67" x="1.002" y="12.525" class="d">3rd</text><text font-size="1.67" x="5.01" y="12.525" class="d">Qu.:19.0</text><text font-size="1.67" x="16.032" y="12.525" class="d">3rd</text><text font-size="1.67" x="20.04" y="12.525" class="d">Qu.:</text><text font-size="1.67" x="25.05" y="12.525" class="d">56.00</text><text font-size="1.67" x="1.002" y="14.696" class="d">Max.</text><text font-size="1.67" x="8.016" y="14.696" class="d">:25.0</text><text font-size="1.67" x="16.032" y="14.696" class="d">Max.</text><text font-size="1.67" x="23.045999999999996" y="14.696" class="d">:120.00</text></svg></svg></g></svg></svg>