<svg xmlns="http://www.w3.org/2000/svg" xmlns:xlink="http://www.w3.org/1999/xlink" width="1040" height="300.52"><rect width="1040" height="300.52" rx="0" ry="0" class="a"></rect><svg height="260.52" viewBox="0 0 100 26.052" width="1000" x="20" xmlns="http://www.w3.org/2000/svg" xmlns:xlink="http://www.w3.org/1999/xlink" y="20"><style>.a{fill:rgb(247,247,247)}.b{font-family:'Fira Code',Monaco,Consolas,Menlo,'Bitstream Vera Sans Mono','Powerline Symbols',monospace}.c{fill:rgb(101,123,131);white-space:pre}.d{fill:transparent}.f{animation-duration:41.3511367425732s;animation-iteration-count:infinite;animation-name:e;animation-timing-function:steps(1,end)}@keyframes e{0%{transform:translateX(-0px)}0%{transform:translateX(-100px)}0.12%{transform:translateX(-200px)}0.21%{transform:translateX(-300px)}0.27%{transform:translateX(-400px)}0.37%{transform:translateX(-500px)}0.52%{transform:translateX(-600px)}0.65%{transform:translateX(-700px)}0.78%{transform:translateX(-800px)}0.96%{transform:translateX(-900px)}1.07%{transform:translateX(-1000px)}1.21%{transform:translateX(-1100px)}1.31%{transform:translateX(-1200px)}1.31%{transform:translateX(-1300px)}1.32%{transform:translateX(-1400px)}13.41%{transform:translateX(-1500px)}13.55%{transform:translateX(-1600px)}13.71%{transform:translateX(-1700px)}13.87%{transform:translateX(-1800px)}14.03%{transform:translateX(-1900px)}14.03%{transform:translateX(-2000px)}14.04%{transform:translateX(-2100px)}14.04%{transform:translateX(-2200px)}26.14%{transform:translateX(-2300px)}26.21%{transform:translateX(-2400px)}26.27%{transform:translateX(-2500px)}26.38%{transform:translateX(-2600px)}26.54%{transform:translateX(-2700px)}26.72%{transform:translateX(-2800px)}26.85%{transform:translateX(-2900px)}26.99%{transform:translateX(-3000px)}27.07%{transform:translateX(-3100px)}27.14%{transform:translateX(-3200px)}27.2%{transform:translateX(-3300px)}27.2%{transform:translateX(-3400px)}27.22%{transform:translateX(-3500px)}27.23%{transform:translateX(-3600px)}27.23%{transform:translateX(-3700px)}27.23%{transform:translateX(-3800px)}27.24%{transform:translateX(-3900px)}27.24%{transform:translateX(-4000px)}27.24%{transform:translateX(-4100px)}27.24%{transform:translateX(-4200px)}27.24%{transform:translateX(-4300px)}27.24%{transform:translateX(-4400px)}27.24%{transform:translateX(-4500px)}27.24%{transform:translateX(-4600px)}27.24%{transform:translateX(-4700px)}27.24%{transform:translateX(-4800px)}27.27%{transform:translateX(-4900px)}39.36%{transform:translateX(-5000px)}39.47%{transform:translateX(-5100px)}39.54%{transform:translateX(-5200px)}39.54%{transform:translateX(-5300px)}100%{transform:translateX(-5400px)}}</style><g font-family="&#x27;Fira Code&#x27;,Monaco,Consolas,Menlo,&#x27;Bitstream Vera Sans Mono&#x27;,&#x27;Powerline Symbols&#x27;,monospace" font-size="1.67" class="b"><defs><symbol id="1"><text x="0" y="1.67" class="c">&gt;</text><text x="2.004" y="1.67" class="c">rs$attach()</text></symbol><symbol id="2"><text x="0" y="1.67" class="c">RS</text><text x="3.006" y="1.67" class="c">12573</text><text x="9.017999999999999" y="1.67" class="c">&gt;</text></symbol><symbol id="3"><text x="0" y="1.67" class="c">RS</text><text x="3.006" y="1.67" class="c">12573</text><text x="9.017999999999999" y="1.67" class="c">&gt;</text><text x="11.021999999999998" y="1.67" class="c">ls()</text></symbol><symbol id="4"><text x="0" y="1.67" class="c">[1]</text><text x="4.008" y="1.67" class="c">&quot;data&quot;</text></symbol><symbol id="5"><text x="0" y="1.67" class="c">RS</text><text x="3.006" y="1.67" class="c">12573</text><text x="9.017999999999999" y="1.67" class="c">&gt;</text><text x="11.021999999999998" y="1.67" class="c">head(data)</text></symbol><symbol id="6"><text x="19.037999999999997" y="1.67" class="c">mpg</text><text x="23.045999999999996" y="1.67" class="c">cyl</text><text x="27.054" y="1.67" class="c">disp</text><text x="33.065999999999995" y="1.67" class="c">hp</text><text x="36.071999999999996" y="1.67" class="c">drat</text><text x="44.087999999999994" y="1.67" class="c">wt</text><text x="48.096" y="1.67" class="c">qsec</text><text x="53.105999999999995" y="1.67" class="c">vs</text><text x="56.111999999999995" y="1.67" class="c">am</text><text x="59.117999999999995" y="1.67" class="c">gear</text><text x="64.128" y="1.67" class="c">carb</text></symbol><symbol id="7"><text x="0" y="1.67" class="c">Mazda</text><text x="6.012" y="1.67" class="c">RX4</text><text x="18.035999999999998" y="1.67" class="c">21.0</text><text x="25.05" y="1.67" class="c">6</text><text x="28.055999999999997" y="1.67" class="c">160</text><text x="32.064" y="1.67" class="c">110</text><text x="36.071999999999996" y="1.67" class="c">3.90</text><text x="41.082" y="1.67" class="c">2.620</text><text x="47.093999999999994" y="1.67" class="c">16.46</text><text x="54.108" y="1.67" class="c">0</text><text x="57.114" y="1.67" class="c">1</text><text x="62.123999999999995" y="1.67" class="c">4</text><text x="67.134" y="1.67" class="c">4</text></symbol><symbol id="8"><text x="0" y="1.67" class="c">Mazda</text><text x="6.012" y="1.67" class="c">RX4</text><text x="10.02" y="1.67" class="c">Wag</text><text x="18.035999999999998" y="1.67" class="c">21.0</text><text x="25.05" y="1.67" class="c">6</text><text x="28.055999999999997" y="1.67" class="c">160</text><text x="32.064" y="1.67" class="c">110</text><text x="36.071999999999996" y="1.67" class="c">3.90</text><text x="41.082" y="1.67" class="c">2.875</text><text x="47.093999999999994" y="1.67" class="c">17.02</text><text x="54.108" y="1.67" class="c">0</text><text x="57.114" y="1.67" class="c">1</text><text x="62.123999999999995" y="1.67" class="c">4</text><text x="67.134" y="1.67" class="c">4</text></symbol><symbol id="9"><text x="0" y="1.67" class="c">Datsun</text><text x="7.013999999999999" y="1.67" class="c">710</text><text x="18.035999999999998" y="1.67" class="c">22.8</text><text x="25.05" y="1.67" class="c">4</text><text x="28.055999999999997" y="1.67" class="c">108</text><text x="33.065999999999995" y="1.67" class="c">93</text><text x="36.071999999999996" y="1.67" class="c">3.85</text><text x="41.082" y="1.67" class="c">2.320</text><text x="47.093999999999994" y="1.67" class="c">18.61</text><text x="54.108" y="1.67" class="c">1</text><text x="57.114" y="1.67" class="c">1</text><text x="62.123999999999995" y="1.67" class="c">4</text><text x="67.134" y="1.67" class="c">1</text></symbol><symbol id="10"><text x="0" y="1.67" class="c">Hornet</text><text x="7.013999999999999" y="1.67" class="c">4</text><text x="9.017999999999999" y="1.67" class="c">Drive</text><text x="18.035999999999998" y="1.67" class="c">21.4</text><text x="25.05" y="1.67" class="c">6</text><text x="28.055999999999997" y="1.67" class="c">258</text><text x="32.064" y="1.67" class="c">110</text><text x="36.071999999999996" y="1.67" class="c">3.08</text><text x="41.082" y="1.67" class="c">3.215</text><text x="47.093999999999994" y="1.67" class="c">19.44</text><text x="54.108" y="1.67" class="c">1</text><text x="57.114" y="1.67" class="c">0</text><text x="62.123999999999995" y="1.67" class="c">3</text><text x="67.134" y="1.67" class="c">1</text></symbol><symbol id="11"><text x="0" y="1.67" class="c">Hornet</text><text x="7.013999999999999" y="1.67" class="c">Sportabout</text><text x="18.035999999999998" y="1.67" class="c">18.7</text><text x="25.05" y="1.67" class="c">8</text><text x="28.055999999999997" y="1.67" class="c">360</text><text x="32.064" y="1.67" class="c">175</text><text x="36.071999999999996" y="1.67" class="c">3.15</text><text x="41.082" y="1.67" class="c">3.440</text><text x="47.093999999999994" y="1.67" class="c">17.02</text><text x="54.108" y="1.67" class="c">0</text><text x="57.114" y="1.67" class="c">0</text><text x="62.123999999999995" y="1.67" class="c">3</text><text x="67.134" y="1.67" class="c">2</text></symbol><symbol id="12"><text x="0" y="1.67" class="c">Valiant</text><text x="18.035999999999998" y="1.67" class="c">18.1</text><text x="25.05" y="1.67" class="c">6</text><text x="28.055999999999997" y="1.67" class="c">225</text><text x="32.064" y="1.67" class="c">105</text><text x="36.071999999999996" y="1.67" class="c">2.76</text><text x="41.082" y="1.67" class="c">3.460</text><text x="47.093999999999994" y="1.67" class="c">20.22</text><text x="54.108" y="1.67" class="c">1</text><text x="57.114" y="1.67" class="c">0</text><text x="62.123999999999995" y="1.67" class="c">3</text><text x="67.134" y="1.67" class="c">1</text></symbol><symbol id="13"><text x="0" y="1.67" class="c">RS</text><text x="3.006" y="1.67" class="c">12573</text><text x="9.017999999999999" y="1.67" class="c">&gt;</text><text x="11.021999999999998" y="1.67" class="c">.q</text></symbol><symbol id="a"><rect height="12" width="100" x="0" y="0" class="d"></rect></symbol></defs><rect height="26.052" width="100" class="a"></rect><g class="f"><svg x="0" y="0" width="5500"><svg x="0"><use xlink:href="#a"></use></svg><svg x="100"><use xlink:href="#a"></use><text x="0" y="1.67" class="c">&gt;</text></svg><svg x="200"><use xlink:href="#a"></use><text x="0" y="1.67" class="c">&gt;</text><text x="2.004" y="1.67" class="c">r</text></svg><svg x="300"><use xlink:href="#a"></use><text x="0" y="1.67" class="c">&gt;</text><text x="2.004" y="1.67" class="c">rs</text></svg><svg x="400"><use xlink:href="#a"></use><text x="0" y="1.67" class="c">&gt;</text><text x="2.004" y="1.67" class="c">rs$</text></svg><svg x="500"><use xlink:href="#a"></use><text x="0" y="1.67" class="c">&gt;</text><text x="2.004" y="1.67" class="c">rs$a</text></svg><svg x="600"><use xlink:href="#a"></use><text x="0" y="1.67" class="c">&gt;</text><text x="2.004" y="1.67" class="c">rs$at</text></svg><svg x="700"><use xlink:href="#a"></use><text x="0" y="1.67" class="c">&gt;</text><text x="2.004" y="1.67" class="c">rs$att</text></svg><svg x="800"><use xlink:href="#a"></use><text x="0" y="1.67" class="c">&gt;</text><text x="2.004" y="1.67" class="c">rs$atta</text></svg><svg x="900"><use xlink:href="#a"></use><text x="0" y="1.67" class="c">&gt;</text><text x="2.004" y="1.67" class="c">rs$attac</text></svg><svg x="1000"><use xlink:href="#a"></use><text x="0" y="1.67" class="c">&gt;</text><text x="2.004" y="1.67" class="c">rs$attach</text></svg><svg x="1100"><use xlink:href="#a"></use><text x="0" y="1.67" class="c">&gt;</text><text x="2.004" y="1.67" class="c">rs$attach(</text></svg><svg x="1200"><use xlink:href="#a"></use><use xlink:href="#1" y="0"></use></svg><svg x="1300"><use xlink:href="#a"></use><use xlink:href="#1" y="0"></use></svg><svg x="1400"><use xlink:href="#a"></use><use xlink:href="#1" y="0"></use><use xlink:href="#2" y="2.171"></use></svg><svg x="1500"><use xlink:href="#a"></use><use xlink:href="#1" y="0"></use><use xlink:href="#2" y="2.171"></use></svg><svg x="1600"><use xlink:href="#a"></use><use xlink:href="#1" y="0"></use><text x="0" y="3.8409999999999997" class="c">RS</text><text x="3.006" y="3.8409999999999997" class="c">12573</text><text x="9.017999999999999" y="3.8409999999999997" class="c">&gt;</text><text x="11.021999999999998" y="3.8409999999999997" class="c">l</text></svg><svg x="1700"><use xlink:href="#a"></use><use xlink:href="#1" y="0"></use><text x="0" y="3.8409999999999997" class="c">RS</text><text x="3.006" y="3.8409999999999997" class="c">12573</text><text x="9.017999999999999" y="3.8409999999999997" class="c">&gt;</text><text x="11.021999999999998" y="3.8409999999999997" class="c">ls</text></svg><svg x="1800"><use xlink:href="#a"></use><use xlink:href="#1" y="0"></use><text x="0" y="3.8409999999999997" class="c">RS</text><text x="3.006" y="3.8409999999999997" class="c">12573</text><text x="9.017999999999999" y="3.8409999999999997" class="c">&gt;</text><text x="11.021999999999998" y="3.8409999999999997" class="c">ls(</text></svg><svg x="1900"><use xlink:href="#a"></use><use xlink:href="#1" y="0"></use><use xlink:href="#3" y="2.171"></use></svg><svg x="2000"><use xlink:href="#a"></use><use xlink:href="#1" y="0"></use><use xlink:href="#3" y="2.171"></use></svg><svg x="2100"><use xlink:href="#a"></use><use xlink:href="#1" y="0"></use><use xlink:href="#3" y="2.171"></use><use xlink:href="#4" y="4.342"></use></svg><svg x="2200"><use xlink:href="#a"></use><use xlink:href="#1" y="0"></use><use xlink:href="#3" y="2.171"></use><use xlink:href="#4" y="4.342"></use><use xlink:href="#2" y="6.513"></use></svg><svg x="2300"><use xlink:href="#a"></use><use xlink:href="#1" y="0"></use><use xlink:href="#3" y="2.171"></use><use xlink:href="#4" y="4.342"></use><use xlink:href="#2" y="6.513"></use></svg><svg x="2400"><use xlink:href="#a"></use><use xlink:href="#1" y="0"></use><use xlink:href="#3" y="2.171"></use><use xlink:href="#4" y="4.342"></use><text x="0" y="8.183" class="c">RS</text><text x="3.006" y="8.183" class="c">12573</text><text x="9.017999999999999" y="8.183" class="c">&gt;</text><text x="11.021999999999998" y="8.183" class="c">h</text></svg><svg x="2500"><use xlink:href="#a"></use><use xlink:href="#1" y="0"></use><use xlink:href="#3" y="2.171"></use><use xlink:href="#4" y="4.342"></use><text x="0" y="8.183" class="c">RS</text><text x="3.006" y="8.183" class="c">12573</text><text x="9.017999999999999" y="8.183" class="c">&gt;</text><text x="11.021999999999998" y="8.183" class="c">he</text></svg><svg x="2600"><use xlink:href="#a"></use><use xlink:href="#1" y="0"></use><use xlink:href="#3" y="2.171"></use><use xlink:href="#4" y="4.342"></use><text x="0" y="8.183" class="c">RS</text><text x="3.006" y="8.183" class="c">12573</text><text x="9.017999999999999" y="8.183" class="c">&gt;</text><text x="11.021999999999998" y="8.183" class="c">hea</text></svg><svg x="2700"><use xlink:href="#a"></use><use xlink:href="#1" y="0"></use><use xlink:href="#3" y="2.171"></use><use xlink:href="#4" y="4.342"></use><text x="0" y="8.183" class="c">RS</text><text x="3.006" y="8.183" class="c">12573</text><text x="9.017999999999999" y="8.183" class="c">&gt;</text><text x="11.021999999999998" y="8.183" class="c">head</text></svg><svg x="2800"><use xlink:href="#a"></use><use xlink:href="#1" y="0"></use><use xlink:href="#3" y="2.171"></use><use xlink:href="#4" y="4.342"></use><text x="0" y="8.183" class="c">RS</text><text x="3.006" y="8.183" class="c">12573</text><text x="9.017999999999999" y="8.183" class="c">&gt;</text><text x="11.021999999999998" y="8.183" class="c">head(</text></svg><svg x="2900"><use xlink:href="#a"></use><use xlink:href="#1" y="0"></use><use xlink:href="#3" y="2.171"></use><use xlink:href="#4" y="4.342"></use><text x="0" y="8.183" class="c">RS</text><text x="3.006" y="8.183" class="c">12573</text><text x="9.017999999999999" y="8.183" class="c">&gt;</text><text x="11.021999999999998" y="8.183" class="c">head(d</text></svg><svg x="3000"><use xlink:href="#a"></use><use xlink:href="#1" y="0"></use><use xlink:href="#3" y="2.171"></use><use xlink:href="#4" y="4.342"></use><text x="0" y="8.183" class="c">RS</text><text x="3.006" y="8.183" class="c">12573</text><text x="9.017999999999999" y="8.183" class="c">&gt;</text><text x="11.021999999999998" y="8.183" class="c">head(da</text></svg><svg x="3100"><use xlink:href="#a"></use><use xlink:href="#1" y="0"></use><use xlink:href="#3" y="2.171"></use><use xlink:href="#4" y="4.342"></use><text x="0" y="8.183" class="c">RS</text><text x="3.006" y="8.183" class="c">12573</text><text x="9.017999999999999" y="8.183" class="c">&gt;</text><text x="11.021999999999998" y="8.183" class="c">head(dat</text></svg><svg x="3200"><use xlink:href="#a"></use><use xlink:href="#1" y="0"></use><use xlink:href="#3" y="2.171"></use><use xlink:href="#4" y="4.342"></use><text x="0" y="8.183" class="c">RS</text><text x="3.006" y="8.183" class="c">12573</text><text x="9.017999999999999" y="8.183" class="c">&gt;</text><text x="11.021999999999998" y="8.183" class="c">head(data</text></svg><svg x="3300"><use xlink:href="#a"></use><use xlink:href="#1" y="0"></use><use xlink:href="#3" y="2.171"></use><use xlink:href="#4" y="4.342"></use><use xlink:href="#5" y="6.513"></use></svg><svg x="3400"><use xlink:href="#a"></use><use xlink:href="#1" y="0"></use><use xlink:href="#3" y="2.171"></use><use xlink:href="#4" y="4.342"></use><use xlink:href="#5" y="6.513"></use></svg><svg x="3500"><use xlink:href="#a"></use><use xlink:href="#1" y="0"></use><use xlink:href="#3" y="2.171"></use><use xlink:href="#4" y="4.342"></use><use xlink:href="#5" y="6.513"></use></svg><svg x="3600"><use xlink:href="#a"></use><use xlink:href="#1" y="0"></use><use xlink:href="#3" y="2.171"></use><use xlink:href="#4" y="4.342"></use><use xlink:href="#5" y="6.513"></use><text x="19.037999999999997" y="10.354" class="c">mpg</text></svg><svg x="3700"><use xlink:href="#a"></use><use xlink:href="#1" y="0"></use><use xlink:href="#3" y="2.171"></use><use xlink:href="#4" y="4.342"></use><use xlink:href="#5" y="6.513"></use><text x="19.037999999999997" y="10.354" class="c">mpg</text><text x="23.045999999999996" y="10.354" class="c">cyl</text></svg><svg x="3800"><use xlink:href="#a"></use><use xlink:href="#1" y="0"></use><use xlink:href="#3" y="2.171"></use><use xlink:href="#4" y="4.342"></use><use xlink:href="#5" y="6.513"></use><text x="19.037999999999997" y="10.354" class="c">mpg</text><text x="23.045999999999996" y="10.354" class="c">cyl</text><text x="27.054" y="10.354" class="c">disp</text></svg><svg x="3900"><use xlink:href="#a"></use><use xlink:href="#1" y="0"></use><use xlink:href="#3" y="2.171"></use><use xlink:href="#4" y="4.342"></use><use xlink:href="#5" y="6.513"></use><text x="19.037999999999997" y="10.354" class="c">mpg</text><text x="23.045999999999996" y="10.354" class="c">cyl</text><text x="27.054" y="10.354" class="c">disp</text><text x="33.065999999999995" y="10.354" class="c">hp</text></svg><svg x="4000"><use xlink:href="#a"></use><use xlink:href="#1" y="0"></use><use xlink:href="#3" y="2.171"></use><use xlink:href="#4" y="4.342"></use><use xlink:href="#5" y="6.513"></use><text x="19.037999999999997" y="10.354" class="c">mpg</text><text x="23.045999999999996" y="10.354" class="c">cyl</text><text x="27.054" y="10.354" class="c">disp</text><text x="33.065999999999995" y="10.354" class="c">hp</text><text x="36.071999999999996" y="10.354" class="c">drat</text></svg><svg x="4100"><use xlink:href="#a"></use><use xlink:href="#1" y="0"></use><use xlink:href="#3" y="2.171"></use><use xlink:href="#4" y="4.342"></use><use xlink:href="#5" y="6.513"></use><text x="19.037999999999997" y="10.354" class="c">mpg</text><text x="23.045999999999996" y="10.354" class="c">cyl</text><text x="27.054" y="10.354" class="c">disp</text><text x="33.065999999999995" y="10.354" class="c">hp</text><text x="36.071999999999996" y="10.354" class="c">drat</text><text x="44.087999999999994" y="10.354" class="c">wt</text></svg><svg x="4200"><use xlink:href="#a"></use><use xlink:href="#1" y="0"></use><use xlink:href="#3" y="2.171"></use><use xlink:href="#4" y="4.342"></use><use xlink:href="#5" y="6.513"></use><text x="19.037999999999997" y="10.354" class="c">mpg</text><text x="23.045999999999996" y="10.354" class="c">cyl</text><text x="27.054" y="10.354" class="c">disp</text><text x="33.065999999999995" y="10.354" class="c">hp</text><text x="36.071999999999996" y="10.354" class="c">drat</text><text x="44.087999999999994" y="10.354" class="c">wt</text><text x="48.096" y="10.354" class="c">qsec</text></svg><svg x="4300"><use xlink:href="#a"></use><use xlink:href="#1" y="0"></use><use xlink:href="#3" y="2.171"></use><use xlink:href="#4" y="4.342"></use><use xlink:href="#5" y="6.513"></use><text x="19.037999999999997" y="10.354" class="c">mpg</text><text x="23.045999999999996" y="10.354" class="c">cyl</text><text x="27.054" y="10.354" class="c">disp</text><text x="33.065999999999995" y="10.354" class="c">hp</text><text x="36.071999999999996" y="10.354" class="c">drat</text><text x="44.087999999999994" y="10.354" class="c">wt</text><text x="48.096" y="10.354" class="c">qsec</text><text x="53.105999999999995" y="10.354" class="c">vs</text></svg><svg x="4400"><use xlink:href="#a"></use><use xlink:href="#1" y="0"></use><use xlink:href="#3" y="2.171"></use><use xlink:href="#4" y="4.342"></use><use xlink:href="#5" y="6.513"></use><text x="19.037999999999997" y="10.354" class="c">mpg</text><text x="23.045999999999996" y="10.354" class="c">cyl</text><text x="27.054" y="10.354" class="c">disp</text><text x="33.065999999999995" y="10.354" class="c">hp</text><text x="36.071999999999996" y="10.354" class="c">drat</text><text x="44.087999999999994" y="10.354" class="c">wt</text><text x="48.096" y="10.354" class="c">qsec</text><text x="53.105999999999995" y="10.354" class="c">vs</text><text x="56.111999999999995" y="10.354" class="c">am</text></svg><svg x="4500"><use xlink:href="#a"></use><use xlink:href="#1" y="0"></use><use xlink:href="#3" y="2.171"></use><use xlink:href="#4" y="4.342"></use><use xlink:href="#5" y="6.513"></use><text x="19.037999999999997" y="10.354" class="c">mpg</text><text x="23.045999999999996" y="10.354" class="c">cyl</text><text x="27.054" y="10.354" class="c">disp</text><text x="33.065999999999995" y="10.354" class="c">hp</text><text x="36.071999999999996" y="10.354" class="c">drat</text><text x="44.087999999999994" y="10.354" class="c">wt</text><text x="48.096" y="10.354" class="c">qsec</text><text x="53.105999999999995" y="10.354" class="c">vs</text><text x="56.111999999999995" y="10.354" class="c">am</text><text x="59.117999999999995" y="10.354" class="c">gear</text></svg><svg x="4600"><use xlink:href="#a"></use><use xlink:href="#1" y="0"></use><use xlink:href="#3" y="2.171"></use><use xlink:href="#4" y="4.342"></use><use xlink:href="#5" y="6.513"></use><use xlink:href="#6" y="8.684"></use></svg><svg x="4700"><use xlink:href="#a"></use><use xlink:href="#1" y="0"></use><use xlink:href="#3" y="2.171"></use><use xlink:href="#4" y="4.342"></use><use xlink:href="#5" y="6.513"></use><use xlink:href="#6" y="8.684"></use><text x="0" y="12.525" class="c">Mazda</text><text x="6.012" y="12.525" class="c">RX4</text></svg><svg x="4800"><use xlink:href="#a"></use><use xlink:href="#1" y="0"></use><use xlink:href="#3" y="2.171"></use><use xlink:href="#4" y="4.342"></use><use xlink:href="#5" y="6.513"></use><use xlink:href="#6" y="8.684"></use><use xlink:href="#7" y="10.855"></use><use xlink:href="#8" y="13.026"></use><use xlink:href="#9" y="15.197"></use><use xlink:href="#10" y="17.368"></use><use xlink:href="#11" y="19.539"></use><use xlink:href="#12" y="21.71"></use></svg><svg x="4900"><use xlink:href="#a"></use><use xlink:href="#1" y="0"></use><use xlink:href="#3" y="2.171"></use><use xlink:href="#4" y="4.342"></use><use xlink:href="#5" y="6.513"></use><use xlink:href="#6" y="8.684"></use><use xlink:href="#7" y="10.855"></use><use xlink:href="#8" y="13.026"></use><use xlink:href="#9" y="15.197"></use><use xlink:href="#10" y="17.368"></use><use xlink:href="#11" y="19.539"></use><use xlink:href="#12" y="21.71"></use><use xlink:href="#2" y="23.880999999999997"></use></svg><svg x="5000"><use xlink:href="#a"></use><use xlink:href="#1" y="0"></use><use xlink:href="#3" y="2.171"></use><use xlink:href="#4" y="4.342"></use><use xlink:href="#5" y="6.513"></use><use xlink:href="#6" y="8.684"></use><use xlink:href="#7" y="10.855"></use><use xlink:href="#8" y="13.026"></use><use xlink:href="#9" y="15.197"></use><use xlink:href="#10" y="17.368"></use><use xlink:href="#11" y="19.539"></use><use xlink:href="#12" y="21.71"></use><use xlink:href="#2" y="23.880999999999997"></use></svg><svg x="5100"><use xlink:href="#a"></use><use xlink:href="#1" y="0"></use><use xlink:href="#3" y="2.171"></use><use xlink:href="#4" y="4.342"></use><use xlink:href="#5" y="6.513"></use><use xlink:href="#6" y="8.684"></use><use xlink:href="#7" y="10.855"></use><use xlink:href="#8" y="13.026"></use><use xlink:href="#9" y="15.197"></use><use xlink:href="#10" y="17.368"></use><use xlink:href="#11" y="19.539"></use><use xlink:href="#12" y="21.71"></use><text x="0" y="25.550999999999995" class="c">RS</text><text x="3.006" y="25.550999999999995" class="c">12573</text><text x="9.017999999999999" y="25.550999999999995" class="c">&gt;</text><text x="11.021999999999998" y="25.550999999999995" class="c">.</text></svg><svg x="5200"><use xlink:href="#a"></use><use xlink:href="#1" y="0"></use><use xlink:href="#3" y="2.171"></use><use xlink:href="#4" y="4.342"></use><use xlink:href="#5" y="6.513"></use><use xlink:href="#6" y="8.684"></use><use xlink:href="#7" y="10.855"></use><use xlink:href="#8" y="13.026"></use><use xlink:href="#9" y="15.197"></use><use xlink:href="#10" y="17.368"></use><use xlink:href="#11" y="19.539"></use><use xlink:href="#12" y="21.71"></use><use xlink:href="#13" y="23.880999999999997"></use></svg><svg x="5300"><use xlink:href="#a"></use><use xlink:href="#3" y="0"></use><use xlink:href="#4" y="2.171"></use><use xlink:href="#5" y="4.342"></use><use xlink:href="#6" y="6.513"></use><use xlink:href="#7" y="8.684"></use><use xlink:href="#8" y="10.855"></use><use xlink:href="#9" y="13.026"></use><use xlink:href="#10" y="15.197"></use><use xlink:href="#11" y="17.368"></use><use xlink:href="#12" y="19.539"></use><use xlink:href="#13" y="21.71"></use></svg><svg x="5400"><use xlink:href="#a"></use><use xlink:href="#3" y="0"></use><use xlink:href="#4" y="2.171"></use><use xlink:href="#5" y="4.342"></use><use xlink:href="#6" y="6.513"></use><use xlink:href="#7" y="8.684"></use><use xlink:href="#8" y="10.855"></use><use xlink:href="#9" y="13.026"></use><use xlink:href="#10" y="15.197"></use><use xlink:href="#11" y="17.368"></use><use xlink:href="#12" y="19.539"></use><use xlink:href="#13" y="21.71"></use></svg></svg></g></g></svg></svg>