<svg xmlns="http://www.w3.org/2000/svg" xmlns:xlink="http://www.w3.org/1999/xlink" width="1040" height="1537.9899999999998"><rect width="1040" height="1537.9899999999998" rx="0" ry="0" class="a"></rect><svg height="1497.9899999999998" viewBox="0 0 100 149.79899999999998" width="1000" x="20" xmlns="http://www.w3.org/2000/svg" xmlns:xlink="http://www.w3.org/1999/xlink" y="20"><style>.a{fill:rgb(247,247,247)}.b{font-family:'Fira Code',Monaco,Consolas,Menlo,'Bitstream Vera Sans Mono','Powerline Symbols',monospace}.c{fill:rgb(101,123,131);white-space:pre}.d{fill:transparent}</style><g font-family="&#x27;Fira Code&#x27;,Monaco,Consolas,Menlo,&#x27;Bitstream Vera Sans Mono&#x27;,&#x27;Powerline Symbols&#x27;,monospace" font-size="1.67" class="b"><defs><symbol id="1"><text x="0" y="1.67" class="c">NULL</text></symbol><symbol id="2"><text x="0" y="1.67" class="c">$code</text></symbol><symbol id="3"><text x="0" y="1.67" class="c">[1]</text><text x="4.008" y="1.67" class="c">200</text></symbol><symbol id="4"><text x="0" y="1.67" class="c">$message</text></symbol><symbol id="5"><text x="0" y="1.67" class="c">$result</text></symbol><symbol id="6"><text x="0" y="1.67" class="c">$stdout</text></symbol><symbol id="7"><text x="0" y="1.67" class="c">[1]</text><text x="4.008" y="1.67" class="c">&quot;&quot;</text></symbol><symbol id="8"><text x="0" y="1.67" class="c">$stderr</text></symbol><symbol id="9"><text x="0" y="1.67" class="c">$error</text></symbol><symbol id="10"><text x="0" y="1.67" class="c">attr(,&quot;class&quot;)</text></symbol><symbol id="11"><text x="0" y="1.67" class="c">[1]</text><text x="4.008" y="1.67" class="c">&quot;callr_session_result&quot;</text></symbol><symbol id="a"><rect height="69" width="100" x="0" y="0" class="d"></rect></symbol></defs><rect height="149.79899999999998" width="100" class="a"></rect><svg x="0" y="0" width="100"><svg x="0"><use xlink:href="#a"></use><text x="0" y="1.67" class="c">[[1]]</text><use xlink:href="#1" y="2.171"></use><text x="0" y="8.183" class="c">[[2]]</text><use xlink:href="#2" y="8.684"></use><use xlink:href="#3" y="10.855"></use><use xlink:href="#4" y="15.197"></use><text x="0" y="19.037999999999997" class="c">[1]</text><text x="4.008" y="19.037999999999997" class="c">&quot;done</text><text x="10.02" y="19.037999999999997" class="c">callr-rs-result-30c5520de35e&quot;</text><use xlink:href="#5" y="21.71"></use><text x="0" y="25.550999999999995" class="c">I</text><text x="2.004" y="25.550999999999995" class="c">am</text><text x="5.01" y="25.550999999999995" class="c">process</text><text x="13.026" y="25.550999999999995" class="c">12522.</text><use xlink:href="#6" y="28.223000000000003"></use><use xlink:href="#7" y="30.394"></use><use xlink:href="#8" y="34.736"></use><use xlink:href="#7" y="36.907000000000004"></use><use xlink:href="#9" y="41.248999999999995"></use><use xlink:href="#1" y="43.42"></use><use xlink:href="#10" y="47.76199999999999"></use><use xlink:href="#11" y="49.933"></use><text x="0" y="55.945" class="c">[[3]]</text><use xlink:href="#2" y="56.446000000000005"></use><use xlink:href="#3" y="58.617"></use><use xlink:href="#4" y="62.959"></use><text x="0" y="66.8" class="c">[1]</text><text x="4.008" y="66.8" class="c">&quot;done</text><text x="10.02" y="66.8" class="c">callr-rs-result-30c513835d32&quot;</text><use xlink:href="#5" y="69.472"></use><text x="0" y="73.313" class="c">I</text><text x="2.004" y="73.313" class="c">am</text><text x="5.01" y="73.313" class="c">process</text><text x="13.026" y="73.313" class="c">12523.</text><use xlink:href="#6" y="75.985"></use><use xlink:href="#7" y="78.156"></use><use xlink:href="#8" y="82.49799999999999"></use><use xlink:href="#7" y="84.669"></use><use xlink:href="#9" y="89.011"></use><use xlink:href="#1" y="91.182"></use><use xlink:href="#10" y="95.52399999999999"></use><use xlink:href="#11" y="97.695"></use><text x="0" y="103.707" class="c">[[4]]</text><use xlink:href="#2" y="104.208"></use><use xlink:href="#3" y="106.379"></use><use xlink:href="#4" y="110.721"></use><text x="0" y="114.56200000000001" class="c">[1]</text><text x="4.008" y="114.56200000000001" class="c">&quot;done</text><text x="10.02" y="114.56200000000001" class="c">callr-rs-result-30c59363bba&quot;</text><use xlink:href="#5" y="117.234"></use><text x="0" y="121.075" class="c">I</text><text x="2.004" y="121.075" class="c">am</text><text x="5.01" y="121.075" class="c">process</text><text x="13.026" y="121.075" class="c">12525.</text><use xlink:href="#6" y="123.747"></use><use xlink:href="#7" y="125.918"></use><use xlink:href="#8" y="130.26"></use><use xlink:href="#7" y="132.43099999999998"></use><use xlink:href="#9" y="136.773"></use><use xlink:href="#1" y="138.944"></use><use xlink:href="#10" y="143.286"></use><use xlink:href="#11" y="145.457"></use></svg></svg></g></svg></svg>