<svg xmlns="http://www.w3.org/2000/svg" xmlns:xlink="http://www.w3.org/1999/xlink" width="840" height="300.52"><rect width="840" height="300.52" rx="0" ry="0" class="a"></rect><svg height="260.52" viewBox="0 0 80 26.052" width="800" x="20" xmlns="http://www.w3.org/2000/svg" xmlns:xlink="http://www.w3.org/1999/xlink" y="20"><style>.a{fill:rgb(241,243,245)}.b{font-family:'Fira Code',Monaco,Consolas,Menlo,'Bitstream Vera Sans Mono','Powerline Symbols',monospace}.c{fill:transparent}.d{fill:rgb(23,36,49);white-space:pre}</style><g font-family="&#x27;Fira Code&#x27;,Monaco,Consolas,Menlo,&#x27;Bitstream Vera Sans Mono&#x27;,&#x27;Powerline Symbols&#x27;,monospace" font-size="1.67" class="b"><defs><symbol id="a"><rect height="12" width="80" x="0" y="0" class="c"></rect></symbol></defs><rect height="26.052" width="80" class="a"></rect><svg x="0" y="0" width="80"><svg x="0"><use xlink:href="#a"></use><text x="0" y="1.67" class="d">[[1]]</text><text x="0" y="3.8409999999999997" class="d">R</text><text x="2.004" y="3.8409999999999997" class="d">SESSION,</text><text x="11.021999999999998" y="3.8409999999999997" class="d">alive,</text><text x="18.035999999999998" y="3.8409999999999997" class="d">busy,</text><text x="24.048" y="3.8409999999999997" class="d">pid</text><text x="28.055999999999997" y="3.8409999999999997" class="d">12561.</text><text x="0" y="8.183" class="d">[[2]]</text><text x="0" y="10.354" class="d">R</text><text x="2.004" y="10.354" class="d">SESSION,</text><text x="11.021999999999998" y="10.354" class="d">alive,</text><text x="18.035999999999998" y="10.354" class="d">busy,</text><text x="24.048" y="10.354" class="d">pid</text><text x="28.055999999999997" y="10.354" class="d">12563.</text><text x="0" y="14.696" class="d">[[3]]</text><text x="0" y="16.866999999999997" class="d">R</text><text x="2.004" y="16.866999999999997" class="d">SESSION,</text><text x="11.021999999999998" y="16.866999999999997" class="d">alive,</text><text x="18.035999999999998" y="16.866999999999997" class="d">busy,</text><text x="24.048" y="16.866999999999997" class="d">pid</text><text x="28.055999999999997" y="16.866999999999997" class="d">12564.</text><text x="0" y="21.209000000000003" class="d">[[4]]</text><text x="0" y="23.380000000000003" class="d">R</text><text x="2.004" y="23.380000000000003" class="d">SESSION,</text><text x="11.021999999999998" y="23.380000000000003" class="d">alive,</text><text x="18.035999999999998" y="23.380000000000003" class="d">busy,</text><text x="24.048" y="23.380000000000003" class="d">pid</text><text x="28.055999999999997" y="23.380000000000003" class="d">12567.</text></svg></svg></g></svg></svg>