<svg xmlns="http://www.w3.org/2000/svg" xmlns:xlink="http://www.w3.org/1999/xlink" width="1040" height="495.91"><rect width="1040" height="495.91" rx="0" ry="0" class="a"></rect><svg height="455.91" viewBox="0 0 100 45.591" width="1000" x="20" xmlns="http://www.w3.org/2000/svg" xmlns:xlink="http://www.w3.org/1999/xlink" y="20"><style>.a{fill:rgb(247,247,247)}.b{font-family:'Fira Code',Monaco,Consolas,Menlo,'Bitstream Vera Sans Mono','Powerline Symbols',monospace}.c{fill:rgb(101,123,131);white-space:pre}.d{fill:transparent}.f{animation-duration:46.5320574104767s;animation-iteration-count:infinite;animation-name:e;animation-timing-function:steps(1,end)}@keyframes e{0%{transform:translateX(-0px)}0%{transform:translateX(-100px)}0.08%{transform:translateX(-200px)}0.17%{transform:translateX(-300px)}0.25%{transform:translateX(-400px)}0.36%{transform:translateX(-500px)}0.47%{transform:translateX(-600px)}0.6%{transform:translateX(-700px)}0.7%{transform:translateX(-800px)}0.78%{transform:translateX(-900px)}0.93%{transform:translateX(-1000px)}1.09%{transform:translateX(-1100px)}1.09%{transform:translateX(-1200px)}1.14%{transform:translateX(-1300px)}1.14%{transform:translateX(-1400px)}1.14%{transform:translateX(-1500px)}1.14%{transform:translateX(-1600px)}1.14%{transform:translateX(-1700px)}1.14%{transform:translateX(-1800px)}1.14%{transform:translateX(-1900px)}1.14%{transform:translateX(-2000px)}1.14%{transform:translateX(-2100px)}1.14%{transform:translateX(-2200px)}1.14%{transform:translateX(-2300px)}1.14%{transform:translateX(-2400px)}1.14%{transform:translateX(-2500px)}1.14%{transform:translateX(-2600px)}1.21%{transform:translateX(-2700px)}1.21%{transform:translateX(-2800px)}1.21%{transform:translateX(-2900px)}1.21%{transform:translateX(-3000px)}1.21%{transform:translateX(-3100px)}1.21%{transform:translateX(-3200px)}1.21%{transform:translateX(-3300px)}1.23%{transform:translateX(-3400px)}11.98%{transform:translateX(-3500px)}12.12%{transform:translateX(-3600px)}12.2%{transform:translateX(-3700px)}12.35%{transform:translateX(-3800px)}12.45%{transform:translateX(-3900px)}12.57%{transform:translateX(-4000px)}12.72%{transform:translateX(-4100px)}12.79%{transform:translateX(-4200px)}12.91%{transform:translateX(-4300px)}12.99%{transform:translateX(-4400px)}13.05%{transform:translateX(-4500px)}13.05%{transform:translateX(-4600px)}13.05%{transform:translateX(-4700px)}13.05%{transform:translateX(-4800px)}23.8%{transform:translateX(-4900px)}23.88%{transform:translateX(-5000px)}24.01%{transform:translateX(-5100px)}24.08%{transform:translateX(-5200px)}24.23%{transform:translateX(-5300px)}24.23%{transform:translateX(-5400px)}24.3%{transform:translateX(-5500px)}24.3%{transform:translateX(-5600px)}24.3%{transform:translateX(-5700px)}24.3%{transform:translateX(-5800px)}24.3%{transform:translateX(-5900px)}24.3%{transform:translateX(-6000px)}24.31%{transform:translateX(-6100px)}35.05%{transform:translateX(-6200px)}35.14%{transform:translateX(-6300px)}35.2%{transform:translateX(-6400px)}35.28%{transform:translateX(-6500px)}35.28%{transform:translateX(-6600px)}35.36%{transform:translateX(-6700px)}35.36%{transform:translateX(-6800px)}35.36%{transform:translateX(-6900px)}35.36%{transform:translateX(-7000px)}35.36%{transform:translateX(-7100px)}35.36%{transform:translateX(-7200px)}35.36%{transform:translateX(-7300px)}35.37%{transform:translateX(-7400px)}46.11%{transform:translateX(-7500px)}46.18%{transform:translateX(-7600px)}46.27%{transform:translateX(-7700px)}46.27%{transform:translateX(-7800px)}100%{transform:translateX(-7900px)}}</style><g font-family="&#x27;Fira Code&#x27;,Monaco,Consolas,Menlo,&#x27;Bitstream Vera Sans Mono&#x27;,&#x27;Powerline Symbols&#x27;,monospace" font-size="1.67" class="b"><defs><symbol id="1"><text x="0" y="1.67" class="c">&gt;</text><text x="2.004" y="1.67" class="c">rs$debug()</text></symbol><symbol id="2"><text x="0" y="1.67" class="c">Debugging</text><text x="10.02" y="1.67" class="c">in</text><text x="13.026" y="1.67" class="c">process</text></symbol><symbol id="3"><text x="0" y="1.67" class="c">Debugging</text><text x="10.02" y="1.67" class="c">in</text><text x="13.026" y="1.67" class="c">process</text><text x="21.041999999999998" y="1.67" class="c">12565</text></symbol><symbol id="4"><text x="0" y="1.67" class="c">Debugging</text><text x="10.02" y="1.67" class="c">in</text><text x="13.026" y="1.67" class="c">process</text><text x="21.041999999999998" y="1.67" class="c">12565,</text><text x="28.055999999999997" y="1.67" class="c">press</text><text x="34.068" y="1.67" class="c">CTRL+C</text><text x="41.082" y="1.67" class="c">(ESC)</text><text x="47.093999999999994" y="1.67" class="c">or</text><text x="50.1" y="1.67" class="c">type</text><text x="55.10999999999999" y="1.67" class="c">.q</text><text x="58.116" y="1.67" class="c">to</text><text x="61.12199999999999" y="1.67" class="c">quit.</text><text x="67.134" y="1.67" class="c">Commands:</text></symbol><symbol id="5"><text x="2.004" y="1.67" class="c">.where</text><text x="15.029999999999998" y="1.67" class="c">--</text><text x="18.035999999999998" y="1.67" class="c">print</text><text x="24.048" y="1.67" class="c">stack</text><text x="30.059999999999995" y="1.67" class="c">trace</text></symbol><symbol id="6"><text x="2.004" y="1.67" class="c">.inspect</text><text x="11.021999999999998" y="1.67" class="c">&lt;n&gt;</text><text x="15.029999999999998" y="1.67" class="c">--</text><text x="18.035999999999998" y="1.67" class="c">inspect</text><text x="26.052" y="1.67" class="c">a</text><text x="28.055999999999997" y="1.67" class="c">frame,</text><text x="35.06999999999999" y="1.67" class="c">0</text><text x="37.074" y="1.67" class="c">resets</text><text x="44.087999999999994" y="1.67" class="c">to</text><text x="47.093999999999994" y="1.67" class="c">.GlobalEnv</text></symbol><symbol id="7"><text x="2.004" y="1.67" class="c">.help</text><text x="15.029999999999998" y="1.67" class="c">--</text><text x="18.035999999999998" y="1.67" class="c">print</text><text x="24.048" y="1.67" class="c">this</text><text x="29.058" y="1.67" class="c">message</text></symbol><symbol id="8"><text x="2.004" y="1.67" class="c">.q</text><text x="15.029999999999998" y="1.67" class="c">--</text><text x="18.035999999999998" y="1.67" class="c">quit</text><text x="23.045999999999996" y="1.67" class="c">debugger</text></symbol><symbol id="9"><text x="2.004" y="1.67" class="c">&lt;cmd&gt;</text><text x="15.029999999999998" y="1.67" class="c">--</text><text x="18.035999999999998" y="1.67" class="c">run</text><text x="22.043999999999997" y="1.67" class="c">&lt;cmd&gt;</text><text x="28.055999999999997" y="1.67" class="c">in</text><text x="31.061999999999998" y="1.67" class="c">frame</text><text x="37.074" y="1.67" class="c">or</text><text x="40.08" y="1.67" class="c">.GlobalEnv</text></symbol><symbol id="10"><text x="0" y="1.67" class="c">3:</text><text x="3.006" y="1.67" class="c">f3()</text><text x="8.016" y="1.67" class="c">at</text><text x="11.021999999999998" y="1.67" class="c">#4</text></symbol><symbol id="11"><text x="0" y="1.67" class="c">2:</text><text x="3.006" y="1.67" class="c">f2()</text><text x="8.016" y="1.67" class="c">at</text><text x="11.021999999999998" y="1.67" class="c">#3</text></symbol><symbol id="12"><text x="0" y="1.67" class="c">1:</text><text x="3.006" y="1.67" class="c">f1()</text></symbol><symbol id="13"><text x="0" y="1.67" class="c">RS</text><text x="3.006" y="1.67" class="c">12565</text><text x="9.017999999999999" y="1.67" class="c">&gt;</text></symbol><symbol id="14"><text x="0" y="1.67" class="c">RS</text><text x="3.006" y="1.67" class="c">12565</text><text x="9.017999999999999" y="1.67" class="c">&gt;</text><text x="11.021999999999998" y="1.67" class="c">.inspect</text></symbol><symbol id="15"><text x="0" y="1.67" class="c">RS</text><text x="3.006" y="1.67" class="c">12565</text><text x="9.017999999999999" y="1.67" class="c">&gt;</text><text x="11.021999999999998" y="1.67" class="c">.inspect</text><text x="20.04" y="1.67" class="c">3</text></symbol><symbol id="16"><text x="0" y="1.67" class="c">RS</text><text x="3.006" y="1.67" class="c">12565</text><text x="9.017999999999999" y="1.67" class="c">(frame</text><text x="16.032" y="1.67" class="c">3)</text><text x="19.037999999999997" y="1.67" class="c">&gt;</text></symbol><symbol id="17"><text x="0" y="1.67" class="c">RS</text><text x="3.006" y="1.67" class="c">12565</text><text x="9.017999999999999" y="1.67" class="c">(frame</text><text x="16.032" y="1.67" class="c">3)</text><text x="19.037999999999997" y="1.67" class="c">&gt;</text><text x="21.041999999999998" y="1.67" class="c">ls()</text></symbol><symbol id="18"><text x="0" y="1.67" class="c">[1]</text></symbol><symbol id="19"><text x="0" y="1.67" class="c">[1]</text><text x="4.008" y="1.67" class="c">&quot;vec&quot;</text></symbol><symbol id="20"><text x="0" y="1.67" class="c">RS</text><text x="3.006" y="1.67" class="c">12565</text><text x="9.017999999999999" y="1.67" class="c">(frame</text><text x="16.032" y="1.67" class="c">3)</text><text x="19.037999999999997" y="1.67" class="c">&gt;</text><text x="21.041999999999998" y="1.67" class="c">vec</text></symbol><symbol id="21"><text x="0" y="1.67" class="c">[1]</text><text x="4.008" y="1.67" class="c">1</text><text x="6.012" y="1.67" class="c">2</text></symbol><symbol id="22"><text x="0" y="1.67" class="c">RS</text><text x="3.006" y="1.67" class="c">12565</text><text x="9.017999999999999" y="1.67" class="c">(frame</text><text x="16.032" y="1.67" class="c">3)</text><text x="19.037999999999997" y="1.67" class="c">&gt;</text><text x="21.041999999999998" y="1.67" class="c">.q</text></symbol><symbol id="a"><rect height="21" width="100" x="0" y="0" class="d"></rect></symbol></defs><rect height="45.591" width="100" class="a"></rect><g class="f"><svg x="0" y="0" width="8000"><svg x="0"><use xlink:href="#a"></use></svg><svg x="100"><use xlink:href="#a"></use><text x="0" y="1.67" class="c">&gt;</text></svg><svg x="200"><use xlink:href="#a"></use><text x="0" y="1.67" class="c">&gt;</text><text x="2.004" y="1.67" class="c">r</text></svg><svg x="300"><use xlink:href="#a"></use><text x="0" y="1.67" class="c">&gt;</text><text x="2.004" y="1.67" class="c">rs</text></svg><svg x="400"><use xlink:href="#a"></use><text x="0" y="1.67" class="c">&gt;</text><text x="2.004" y="1.67" class="c">rs$</text></svg><svg x="500"><use xlink:href="#a"></use><text x="0" y="1.67" class="c">&gt;</text><text x="2.004" y="1.67" class="c">rs$d</text></svg><svg x="600"><use xlink:href="#a"></use><text x="0" y="1.67" class="c">&gt;</text><text x="2.004" y="1.67" class="c">rs$de</text></svg><svg x="700"><use xlink:href="#a"></use><text x="0" y="1.67" class="c">&gt;</text><text x="2.004" y="1.67" class="c">rs$deb</text></svg><svg x="800"><use xlink:href="#a"></use><text x="0" y="1.67" class="c">&gt;</text><text x="2.004" y="1.67" class="c">rs$debu</text></svg><svg x="900"><use xlink:href="#a"></use><text x="0" y="1.67" class="c">&gt;</text><text x="2.004" y="1.67" class="c">rs$debug</text></svg><svg x="1000"><use xlink:href="#a"></use><text x="0" y="1.67" class="c">&gt;</text><text x="2.004" y="1.67" class="c">rs$debug(</text></svg><svg x="1100"><use xlink:href="#a"></use><use xlink:href="#1" y="0"></use></svg><svg x="1200"><use xlink:href="#a"></use><use xlink:href="#1" y="0"></use></svg><svg x="1300"><use xlink:href="#a"></use><use xlink:href="#1" y="0"></use><use xlink:href="#2" y="2.171"></use></svg><svg x="1400"><use xlink:href="#a"></use><use xlink:href="#1" y="0"></use><use xlink:href="#2" y="2.171"></use></svg><svg x="1500"><use xlink:href="#a"></use><use xlink:href="#1" y="0"></use><use xlink:href="#3" y="2.171"></use></svg><svg x="1600"><use xlink:href="#a"></use><use xlink:href="#1" y="0"></use><use xlink:href="#3" y="2.171"></use></svg><svg x="1700"><use xlink:href="#a"></use><use xlink:href="#1" y="0"></use><use xlink:href="#4" y="2.171"></use></svg><svg x="1800"><use xlink:href="#a"></use><use xlink:href="#1" y="0"></use><use xlink:href="#4" y="2.171"></use><use xlink:href="#5" y="4.342"></use></svg><svg x="1900"><use xlink:href="#a"></use><use xlink:href="#1" y="0"></use><use xlink:href="#4" y="2.171"></use><use xlink:href="#5" y="4.342"></use></svg><svg x="2000"><use xlink:href="#a"></use><use xlink:href="#1" y="0"></use><use xlink:href="#4" y="2.171"></use><use xlink:href="#5" y="4.342"></use><use xlink:href="#6" y="6.513"></use></svg><svg x="2100"><use xlink:href="#a"></use><use xlink:href="#1" y="0"></use><use xlink:href="#4" y="2.171"></use><use xlink:href="#5" y="4.342"></use><use xlink:href="#6" y="6.513"></use></svg><svg x="2200"><use xlink:href="#a"></use><use xlink:href="#1" y="0"></use><use xlink:href="#4" y="2.171"></use><use xlink:href="#5" y="4.342"></use><use xlink:href="#6" y="6.513"></use><use xlink:href="#7" y="8.684"></use></svg><svg x="2300"><use xlink:href="#a"></use><use xlink:href="#1" y="0"></use><use xlink:href="#4" y="2.171"></use><use xlink:href="#5" y="4.342"></use><use xlink:href="#6" y="6.513"></use><use xlink:href="#7" y="8.684"></use></svg><svg x="2400"><use xlink:href="#a"></use><use xlink:href="#1" y="0"></use><use xlink:href="#4" y="2.171"></use><use xlink:href="#5" y="4.342"></use><use xlink:href="#6" y="6.513"></use><use xlink:href="#7" y="8.684"></use><use xlink:href="#8" y="10.855"></use></svg><svg x="2500"><use xlink:href="#a"></use><use xlink:href="#1" y="0"></use><use xlink:href="#4" y="2.171"></use><use xlink:href="#5" y="4.342"></use><use xlink:href="#6" y="6.513"></use><use xlink:href="#7" y="8.684"></use><use xlink:href="#8" y="10.855"></use></svg><svg x="2600"><use xlink:href="#a"></use><use xlink:href="#1" y="0"></use><use xlink:href="#4" y="2.171"></use><use xlink:href="#5" y="4.342"></use><use xlink:href="#6" y="6.513"></use><use xlink:href="#7" y="8.684"></use><use xlink:href="#8" y="10.855"></use><use xlink:href="#9" y="13.026"></use></svg><svg x="2700"><use xlink:href="#a"></use><use xlink:href="#1" y="0"></use><use xlink:href="#4" y="2.171"></use><use xlink:href="#5" y="4.342"></use><use xlink:href="#6" y="6.513"></use><use xlink:href="#7" y="8.684"></use><use xlink:href="#8" y="10.855"></use><use xlink:href="#9" y="13.026"></use><use xlink:href="#10" y="17.368"></use></svg><svg x="2800"><use xlink:href="#a"></use><use xlink:href="#1" y="0"></use><use xlink:href="#4" y="2.171"></use><use xlink:href="#5" y="4.342"></use><use xlink:href="#6" y="6.513"></use><use xlink:href="#7" y="8.684"></use><use xlink:href="#8" y="10.855"></use><use xlink:href="#9" y="13.026"></use><use xlink:href="#10" y="17.368"></use></svg><svg x="2900"><use xlink:href="#a"></use><use xlink:href="#1" y="0"></use><use xlink:href="#4" y="2.171"></use><use xlink:href="#5" y="4.342"></use><use xlink:href="#6" y="6.513"></use><use xlink:href="#7" y="8.684"></use><use xlink:href="#8" y="10.855"></use><use xlink:href="#9" y="13.026"></use><use xlink:href="#10" y="17.368"></use><use xlink:href="#11" y="19.539"></use></svg><svg x="3000"><use xlink:href="#a"></use><use xlink:href="#1" y="0"></use><use xlink:href="#4" y="2.171"></use><use xlink:href="#5" y="4.342"></use><use xlink:href="#6" y="6.513"></use><use xlink:href="#7" y="8.684"></use><use xlink:href="#8" y="10.855"></use><use xlink:href="#9" y="13.026"></use><use xlink:href="#10" y="17.368"></use><use xlink:href="#11" y="19.539"></use></svg><svg x="3100"><use xlink:href="#a"></use><use xlink:href="#1" y="0"></use><use xlink:href="#4" y="2.171"></use><use xlink:href="#5" y="4.342"></use><use xlink:href="#6" y="6.513"></use><use xlink:href="#7" y="8.684"></use><use xlink:href="#8" y="10.855"></use><use xlink:href="#9" y="13.026"></use><use xlink:href="#10" y="17.368"></use><use xlink:href="#11" y="19.539"></use><use xlink:href="#12" y="21.71"></use></svg><svg x="3200"><use xlink:href="#a"></use><use xlink:href="#1" y="0"></use><use xlink:href="#4" y="2.171"></use><use xlink:href="#5" y="4.342"></use><use xlink:href="#6" y="6.513"></use><use xlink:href="#7" y="8.684"></use><use xlink:href="#8" y="10.855"></use><use xlink:href="#9" y="13.026"></use><use xlink:href="#10" y="17.368"></use><use xlink:href="#11" y="19.539"></use><use xlink:href="#12" y="21.71"></use></svg><svg x="3300"><use xlink:href="#a"></use><use xlink:href="#1" y="0"></use><use xlink:href="#4" y="2.171"></use><use xlink:href="#5" y="4.342"></use><use xlink:href="#6" y="6.513"></use><use xlink:href="#7" y="8.684"></use><use xlink:href="#8" y="10.855"></use><use xlink:href="#9" y="13.026"></use><use xlink:href="#10" y="17.368"></use><use xlink:href="#11" y="19.539"></use><use xlink:href="#12" y="21.71"></use></svg><svg x="3400"><use xlink:href="#a"></use><use xlink:href="#1" y="0"></use><use xlink:href="#4" y="2.171"></use><use xlink:href="#5" y="4.342"></use><use xlink:href="#6" y="6.513"></use><use xlink:href="#7" y="8.684"></use><use xlink:href="#8" y="10.855"></use><use xlink:href="#9" y="13.026"></use><use xlink:href="#10" y="17.368"></use><use xlink:href="#11" y="19.539"></use><use xlink:href="#12" y="21.71"></use><use xlink:href="#13" y="26.052"></use></svg><svg x="3500"><use xlink:href="#a"></use><use xlink:href="#1" y="0"></use><use xlink:href="#4" y="2.171"></use><use xlink:href="#5" y="4.342"></use><use xlink:href="#6" y="6.513"></use><use xlink:href="#7" y="8.684"></use><use xlink:href="#8" y="10.855"></use><use xlink:href="#9" y="13.026"></use><use xlink:href="#10" y="17.368"></use><use xlink:href="#11" y="19.539"></use><use xlink:href="#12" y="21.71"></use><use xlink:href="#13" y="26.052"></use></svg><svg x="3600"><use xlink:href="#a"></use><use xlink:href="#1" y="0"></use><use xlink:href="#4" y="2.171"></use><use xlink:href="#5" y="4.342"></use><use xlink:href="#6" y="6.513"></use><use xlink:href="#7" y="8.684"></use><use xlink:href="#8" y="10.855"></use><use xlink:href="#9" y="13.026"></use><use xlink:href="#10" y="17.368"></use><use xlink:href="#11" y="19.539"></use><use xlink:href="#12" y="21.71"></use><text x="0" y="27.722" class="c">RS</text><text x="3.006" y="27.722" class="c">12565</text><text x="9.017999999999999" y="27.722" class="c">&gt;</text><text x="11.021999999999998" y="27.722" class="c">.</text></svg><svg x="3700"><use xlink:href="#a"></use><use xlink:href="#1" y="0"></use><use xlink:href="#4" y="2.171"></use><use xlink:href="#5" y="4.342"></use><use xlink:href="#6" y="6.513"></use><use xlink:href="#7" y="8.684"></use><use xlink:href="#8" y="10.855"></use><use xlink:href="#9" y="13.026"></use><use xlink:href="#10" y="17.368"></use><use xlink:href="#11" y="19.539"></use><use xlink:href="#12" y="21.71"></use><text x="0" y="27.722" class="c">RS</text><text x="3.006" y="27.722" class="c">12565</text><text x="9.017999999999999" y="27.722" class="c">&gt;</text><text x="11.021999999999998" y="27.722" class="c">.i</text></svg><svg x="3800"><use xlink:href="#a"></use><use xlink:href="#1" y="0"></use><use xlink:href="#4" y="2.171"></use><use xlink:href="#5" y="4.342"></use><use xlink:href="#6" y="6.513"></use><use xlink:href="#7" y="8.684"></use><use xlink:href="#8" y="10.855"></use><use xlink:href="#9" y="13.026"></use><use xlink:href="#10" y="17.368"></use><use xlink:href="#11" y="19.539"></use><use xlink:href="#12" y="21.71"></use><text x="0" y="27.722" class="c">RS</text><text x="3.006" y="27.722" class="c">12565</text><text x="9.017999999999999" y="27.722" class="c">&gt;</text><text x="11.021999999999998" y="27.722" class="c">.in</text></svg><svg x="3900"><use xlink:href="#a"></use><use xlink:href="#1" y="0"></use><use xlink:href="#4" y="2.171"></use><use xlink:href="#5" y="4.342"></use><use xlink:href="#6" y="6.513"></use><use xlink:href="#7" y="8.684"></use><use xlink:href="#8" y="10.855"></use><use xlink:href="#9" y="13.026"></use><use xlink:href="#10" y="17.368"></use><use xlink:href="#11" y="19.539"></use><use xlink:href="#12" y="21.71"></use><text x="0" y="27.722" class="c">RS</text><text x="3.006" y="27.722" class="c">12565</text><text x="9.017999999999999" y="27.722" class="c">&gt;</text><text x="11.021999999999998" y="27.722" class="c">.ins</text></svg><svg x="4000"><use xlink:href="#a"></use><use xlink:href="#1" y="0"></use><use xlink:href="#4" y="2.171"></use><use xlink:href="#5" y="4.342"></use><use xlink:href="#6" y="6.513"></use><use xlink:href="#7" y="8.684"></use><use xlink:href="#8" y="10.855"></use><use xlink:href="#9" y="13.026"></use><use xlink:href="#10" y="17.368"></use><use xlink:href="#11" y="19.539"></use><use xlink:href="#12" y="21.71"></use><text x="0" y="27.722" class="c">RS</text><text x="3.006" y="27.722" class="c">12565</text><text x="9.017999999999999" y="27.722" class="c">&gt;</text><text x="11.021999999999998" y="27.722" class="c">.insp</text></svg><svg x="4100"><use xlink:href="#a"></use><use xlink:href="#1" y="0"></use><use xlink:href="#4" y="2.171"></use><use xlink:href="#5" y="4.342"></use><use xlink:href="#6" y="6.513"></use><use xlink:href="#7" y="8.684"></use><use xlink:href="#8" y="10.855"></use><use xlink:href="#9" y="13.026"></use><use xlink:href="#10" y="17.368"></use><use xlink:href="#11" y="19.539"></use><use xlink:href="#12" y="21.71"></use><text x="0" y="27.722" class="c">RS</text><text x="3.006" y="27.722" class="c">12565</text><text x="9.017999999999999" y="27.722" class="c">&gt;</text><text x="11.021999999999998" y="27.722" class="c">.inspe</text></svg><svg x="4200"><use xlink:href="#a"></use><use xlink:href="#1" y="0"></use><use xlink:href="#4" y="2.171"></use><use xlink:href="#5" y="4.342"></use><use xlink:href="#6" y="6.513"></use><use xlink:href="#7" y="8.684"></use><use xlink:href="#8" y="10.855"></use><use xlink:href="#9" y="13.026"></use><use xlink:href="#10" y="17.368"></use><use xlink:href="#11" y="19.539"></use><use xlink:href="#12" y="21.71"></use><text x="0" y="27.722" class="c">RS</text><text x="3.006" y="27.722" class="c">12565</text><text x="9.017999999999999" y="27.722" class="c">&gt;</text><text x="11.021999999999998" y="27.722" class="c">.inspec</text></svg><svg x="4300"><use xlink:href="#a"></use><use xlink:href="#1" y="0"></use><use xlink:href="#4" y="2.171"></use><use xlink:href="#5" y="4.342"></use><use xlink:href="#6" y="6.513"></use><use xlink:href="#7" y="8.684"></use><use xlink:href="#8" y="10.855"></use><use xlink:href="#9" y="13.026"></use><use xlink:href="#10" y="17.368"></use><use xlink:href="#11" y="19.539"></use><use xlink:href="#12" y="21.71"></use><use xlink:href="#14" y="26.052"></use></svg><svg x="4400"><use xlink:href="#a"></use><use xlink:href="#1" y="0"></use><use xlink:href="#4" y="2.171"></use><use xlink:href="#5" y="4.342"></use><use xlink:href="#6" y="6.513"></use><use xlink:href="#7" y="8.684"></use><use xlink:href="#8" y="10.855"></use><use xlink:href="#9" y="13.026"></use><use xlink:href="#10" y="17.368"></use><use xlink:href="#11" y="19.539"></use><use xlink:href="#12" y="21.71"></use><use xlink:href="#14" y="26.052"></use></svg><svg x="4500"><use xlink:href="#a"></use><use xlink:href="#1" y="0"></use><use xlink:href="#4" y="2.171"></use><use xlink:href="#5" y="4.342"></use><use xlink:href="#6" y="6.513"></use><use xlink:href="#7" y="8.684"></use><use xlink:href="#8" y="10.855"></use><use xlink:href="#9" y="13.026"></use><use xlink:href="#10" y="17.368"></use><use xlink:href="#11" y="19.539"></use><use xlink:href="#12" y="21.71"></use><use xlink:href="#15" y="26.052"></use></svg><svg x="4600"><use xlink:href="#a"></use><use xlink:href="#1" y="0"></use><use xlink:href="#4" y="2.171"></use><use xlink:href="#5" y="4.342"></use><use xlink:href="#6" y="6.513"></use><use xlink:href="#7" y="8.684"></use><use xlink:href="#8" y="10.855"></use><use xlink:href="#9" y="13.026"></use><use xlink:href="#10" y="17.368"></use><use xlink:href="#11" y="19.539"></use><use xlink:href="#12" y="21.71"></use><use xlink:href="#15" y="26.052"></use></svg><svg x="4700"><use xlink:href="#a"></use><use xlink:href="#1" y="0"></use><use xlink:href="#4" y="2.171"></use><use xlink:href="#5" y="4.342"></use><use xlink:href="#6" y="6.513"></use><use xlink:href="#7" y="8.684"></use><use xlink:href="#8" y="10.855"></use><use xlink:href="#9" y="13.026"></use><use xlink:href="#10" y="17.368"></use><use xlink:href="#11" y="19.539"></use><use xlink:href="#12" y="21.71"></use><use xlink:href="#15" y="26.052"></use></svg><svg x="4800"><use xlink:href="#a"></use><use xlink:href="#1" y="0"></use><use xlink:href="#4" y="2.171"></use><use xlink:href="#5" y="4.342"></use><use xlink:href="#6" y="6.513"></use><use xlink:href="#7" y="8.684"></use><use xlink:href="#8" y="10.855"></use><use xlink:href="#9" y="13.026"></use><use xlink:href="#10" y="17.368"></use><use xlink:href="#11" y="19.539"></use><use xlink:href="#12" y="21.71"></use><use xlink:href="#15" y="26.052"></use><use xlink:href="#16" y="30.394"></use></svg><svg x="4900"><use xlink:href="#a"></use><use xlink:href="#1" y="0"></use><use xlink:href="#4" y="2.171"></use><use xlink:href="#5" y="4.342"></use><use xlink:href="#6" y="6.513"></use><use xlink:href="#7" y="8.684"></use><use xlink:href="#8" y="10.855"></use><use xlink:href="#9" y="13.026"></use><use xlink:href="#10" y="17.368"></use><use xlink:href="#11" y="19.539"></use><use xlink:href="#12" y="21.71"></use><use xlink:href="#15" y="26.052"></use><use xlink:href="#16" y="30.394"></use></svg><svg x="5000"><use xlink:href="#a"></use><use xlink:href="#1" y="0"></use><use xlink:href="#4" y="2.171"></use><use xlink:href="#5" y="4.342"></use><use xlink:href="#6" y="6.513"></use><use xlink:href="#7" y="8.684"></use><use xlink:href="#8" y="10.855"></use><use xlink:href="#9" y="13.026"></use><use xlink:href="#10" y="17.368"></use><use xlink:href="#11" y="19.539"></use><use xlink:href="#12" y="21.71"></use><use xlink:href="#15" y="26.052"></use><text x="0" y="32.064" class="c">RS</text><text x="3.006" y="32.064" class="c">12565</text><text x="9.017999999999999" y="32.064" class="c">(frame</text><text x="16.032" y="32.064" class="c">3)</text><text x="19.037999999999997" y="32.064" class="c">&gt;</text><text x="21.041999999999998" y="32.064" class="c">l</text></svg><svg x="5100"><use xlink:href="#a"></use><use xlink:href="#1" y="0"></use><use xlink:href="#4" y="2.171"></use><use xlink:href="#5" y="4.342"></use><use xlink:href="#6" y="6.513"></use><use xlink:href="#7" y="8.684"></use><use xlink:href="#8" y="10.855"></use><use xlink:href="#9" y="13.026"></use><use xlink:href="#10" y="17.368"></use><use xlink:href="#11" y="19.539"></use><use xlink:href="#12" y="21.71"></use><use xlink:href="#15" y="26.052"></use><text x="0" y="32.064" class="c">RS</text><text x="3.006" y="32.064" class="c">12565</text><text x="9.017999999999999" y="32.064" class="c">(frame</text><text x="16.032" y="32.064" class="c">3)</text><text x="19.037999999999997" y="32.064" class="c">&gt;</text><text x="21.041999999999998" y="32.064" class="c">ls</text></svg><svg x="5200"><use xlink:href="#a"></use><use xlink:href="#1" y="0"></use><use xlink:href="#4" y="2.171"></use><use xlink:href="#5" y="4.342"></use><use xlink:href="#6" y="6.513"></use><use xlink:href="#7" y="8.684"></use><use xlink:href="#8" y="10.855"></use><use xlink:href="#9" y="13.026"></use><use xlink:href="#10" y="17.368"></use><use xlink:href="#11" y="19.539"></use><use xlink:href="#12" y="21.71"></use><use xlink:href="#15" y="26.052"></use><text x="0" y="32.064" class="c">RS</text><text x="3.006" y="32.064" class="c">12565</text><text x="9.017999999999999" y="32.064" class="c">(frame</text><text x="16.032" y="32.064" class="c">3)</text><text x="19.037999999999997" y="32.064" class="c">&gt;</text><text x="21.041999999999998" y="32.064" class="c">ls(</text></svg><svg x="5300"><use xlink:href="#a"></use><use xlink:href="#1" y="0"></use><use xlink:href="#4" y="2.171"></use><use xlink:href="#5" y="4.342"></use><use xlink:href="#6" y="6.513"></use><use xlink:href="#7" y="8.684"></use><use xlink:href="#8" y="10.855"></use><use xlink:href="#9" y="13.026"></use><use xlink:href="#10" y="17.368"></use><use xlink:href="#11" y="19.539"></use><use xlink:href="#12" y="21.71"></use><use xlink:href="#15" y="26.052"></use><use xlink:href="#17" y="30.394"></use></svg><svg x="5400"><use xlink:href="#a"></use><use xlink:href="#1" y="0"></use><use xlink:href="#4" y="2.171"></use><use xlink:href="#5" y="4.342"></use><use xlink:href="#6" y="6.513"></use><use xlink:href="#7" y="8.684"></use><use xlink:href="#8" y="10.855"></use><use xlink:href="#9" y="13.026"></use><use xlink:href="#10" y="17.368"></use><use xlink:href="#11" y="19.539"></use><use xlink:href="#12" y="21.71"></use><use xlink:href="#15" y="26.052"></use><use xlink:href="#17" y="30.394"></use></svg><svg x="5500"><use xlink:href="#a"></use><use xlink:href="#1" y="0"></use><use xlink:href="#4" y="2.171"></use><use xlink:href="#5" y="4.342"></use><use xlink:href="#6" y="6.513"></use><use xlink:href="#7" y="8.684"></use><use xlink:href="#8" y="10.855"></use><use xlink:href="#9" y="13.026"></use><use xlink:href="#10" y="17.368"></use><use xlink:href="#11" y="19.539"></use><use xlink:href="#12" y="21.71"></use><use xlink:href="#15" y="26.052"></use><use xlink:href="#17" y="30.394"></use></svg><svg x="5600"><use xlink:href="#a"></use><use xlink:href="#1" y="0"></use><use xlink:href="#4" y="2.171"></use><use xlink:href="#5" y="4.342"></use><use xlink:href="#6" y="6.513"></use><use xlink:href="#7" y="8.684"></use><use xlink:href="#8" y="10.855"></use><use xlink:href="#9" y="13.026"></use><use xlink:href="#10" y="17.368"></use><use xlink:href="#11" y="19.539"></use><use xlink:href="#12" y="21.71"></use><use xlink:href="#15" y="26.052"></use><use xlink:href="#17" y="30.394"></use></svg><svg x="5700"><use xlink:href="#a"></use><use xlink:href="#1" y="0"></use><use xlink:href="#4" y="2.171"></use><use xlink:href="#5" y="4.342"></use><use xlink:href="#6" y="6.513"></use><use xlink:href="#7" y="8.684"></use><use xlink:href="#8" y="10.855"></use><use xlink:href="#9" y="13.026"></use><use xlink:href="#10" y="17.368"></use><use xlink:href="#11" y="19.539"></use><use xlink:href="#12" y="21.71"></use><use xlink:href="#15" y="26.052"></use><use xlink:href="#17" y="30.394"></use><use xlink:href="#18" y="32.565"></use></svg><svg x="5800"><use xlink:href="#a"></use><use xlink:href="#1" y="0"></use><use xlink:href="#4" y="2.171"></use><use xlink:href="#5" y="4.342"></use><use xlink:href="#6" y="6.513"></use><use xlink:href="#7" y="8.684"></use><use xlink:href="#8" y="10.855"></use><use xlink:href="#9" y="13.026"></use><use xlink:href="#10" y="17.368"></use><use xlink:href="#11" y="19.539"></use><use xlink:href="#12" y="21.71"></use><use xlink:href="#15" y="26.052"></use><use xlink:href="#17" y="30.394"></use><use xlink:href="#19" y="32.565"></use></svg><svg x="5900"><use xlink:href="#a"></use><use xlink:href="#1" y="0"></use><use xlink:href="#4" y="2.171"></use><use xlink:href="#5" y="4.342"></use><use xlink:href="#6" y="6.513"></use><use xlink:href="#7" y="8.684"></use><use xlink:href="#8" y="10.855"></use><use xlink:href="#9" y="13.026"></use><use xlink:href="#10" y="17.368"></use><use xlink:href="#11" y="19.539"></use><use xlink:href="#12" y="21.71"></use><use xlink:href="#15" y="26.052"></use><use xlink:href="#17" y="30.394"></use><use xlink:href="#19" y="32.565"></use></svg><svg x="6000"><use xlink:href="#a"></use><use xlink:href="#1" y="0"></use><use xlink:href="#4" y="2.171"></use><use xlink:href="#5" y="4.342"></use><use xlink:href="#6" y="6.513"></use><use xlink:href="#7" y="8.684"></use><use xlink:href="#8" y="10.855"></use><use xlink:href="#9" y="13.026"></use><use xlink:href="#10" y="17.368"></use><use xlink:href="#11" y="19.539"></use><use xlink:href="#12" y="21.71"></use><use xlink:href="#15" y="26.052"></use><use xlink:href="#17" y="30.394"></use><use xlink:href="#19" y="32.565"></use></svg><svg x="6100"><use xlink:href="#a"></use><use xlink:href="#1" y="0"></use><use xlink:href="#4" y="2.171"></use><use xlink:href="#5" y="4.342"></use><use xlink:href="#6" y="6.513"></use><use xlink:href="#7" y="8.684"></use><use xlink:href="#8" y="10.855"></use><use xlink:href="#9" y="13.026"></use><use xlink:href="#10" y="17.368"></use><use xlink:href="#11" y="19.539"></use><use xlink:href="#12" y="21.71"></use><use xlink:href="#15" y="26.052"></use><use xlink:href="#17" y="30.394"></use><use xlink:href="#19" y="32.565"></use><use xlink:href="#16" y="36.907000000000004"></use></svg><svg x="6200"><use xlink:href="#a"></use><use xlink:href="#1" y="0"></use><use xlink:href="#4" y="2.171"></use><use xlink:href="#5" y="4.342"></use><use xlink:href="#6" y="6.513"></use><use xlink:href="#7" y="8.684"></use><use xlink:href="#8" y="10.855"></use><use xlink:href="#9" y="13.026"></use><use xlink:href="#10" y="17.368"></use><use xlink:href="#11" y="19.539"></use><use xlink:href="#12" y="21.71"></use><use xlink:href="#15" y="26.052"></use><use xlink:href="#17" y="30.394"></use><use xlink:href="#19" y="32.565"></use><use xlink:href="#16" y="36.907000000000004"></use></svg><svg x="6300"><use xlink:href="#a"></use><use xlink:href="#1" y="0"></use><use xlink:href="#4" y="2.171"></use><use xlink:href="#5" y="4.342"></use><use xlink:href="#6" y="6.513"></use><use xlink:href="#7" y="8.684"></use><use xlink:href="#8" y="10.855"></use><use xlink:href="#9" y="13.026"></use><use xlink:href="#10" y="17.368"></use><use xlink:href="#11" y="19.539"></use><use xlink:href="#12" y="21.71"></use><use xlink:href="#15" y="26.052"></use><use xlink:href="#17" y="30.394"></use><use xlink:href="#19" y="32.565"></use><text x="0" y="38.577000000000005" class="c">RS</text><text x="3.006" y="38.577000000000005" class="c">12565</text><text x="9.017999999999999" y="38.577000000000005" class="c">(frame</text><text x="16.032" y="38.577000000000005" class="c">3)</text><text x="19.037999999999997" y="38.577000000000005" class="c">&gt;</text><text x="21.041999999999998" y="38.577000000000005" class="c">v</text></svg><svg x="6400"><use xlink:href="#a"></use><use xlink:href="#1" y="0"></use><use xlink:href="#4" y="2.171"></use><use xlink:href="#5" y="4.342"></use><use xlink:href="#6" y="6.513"></use><use xlink:href="#7" y="8.684"></use><use xlink:href="#8" y="10.855"></use><use xlink:href="#9" y="13.026"></use><use xlink:href="#10" y="17.368"></use><use xlink:href="#11" y="19.539"></use><use xlink:href="#12" y="21.71"></use><use xlink:href="#15" y="26.052"></use><use xlink:href="#17" y="30.394"></use><use xlink:href="#19" y="32.565"></use><text x="0" y="38.577000000000005" class="c">RS</text><text x="3.006" y="38.577000000000005" class="c">12565</text><text x="9.017999999999999" y="38.577000000000005" class="c">(frame</text><text x="16.032" y="38.577000000000005" class="c">3)</text><text x="19.037999999999997" y="38.577000000000005" class="c">&gt;</text><text x="21.041999999999998" y="38.577000000000005" class="c">ve</text></svg><svg x="6500"><use xlink:href="#a"></use><use xlink:href="#1" y="0"></use><use xlink:href="#4" y="2.171"></use><use xlink:href="#5" y="4.342"></use><use xlink:href="#6" y="6.513"></use><use xlink:href="#7" y="8.684"></use><use xlink:href="#8" y="10.855"></use><use xlink:href="#9" y="13.026"></use><use xlink:href="#10" y="17.368"></use><use xlink:href="#11" y="19.539"></use><use xlink:href="#12" y="21.71"></use><use xlink:href="#15" y="26.052"></use><use xlink:href="#17" y="30.394"></use><use xlink:href="#19" y="32.565"></use><use xlink:href="#20" y="36.907000000000004"></use></svg><svg x="6600"><use xlink:href="#a"></use><use xlink:href="#1" y="0"></use><use xlink:href="#4" y="2.171"></use><use xlink:href="#5" y="4.342"></use><use xlink:href="#6" y="6.513"></use><use xlink:href="#7" y="8.684"></use><use xlink:href="#8" y="10.855"></use><use xlink:href="#9" y="13.026"></use><use xlink:href="#10" y="17.368"></use><use xlink:href="#11" y="19.539"></use><use xlink:href="#12" y="21.71"></use><use xlink:href="#15" y="26.052"></use><use xlink:href="#17" y="30.394"></use><use xlink:href="#19" y="32.565"></use><use xlink:href="#20" y="36.907000000000004"></use></svg><svg x="6700"><use xlink:href="#a"></use><use xlink:href="#1" y="0"></use><use xlink:href="#4" y="2.171"></use><use xlink:href="#5" y="4.342"></use><use xlink:href="#6" y="6.513"></use><use xlink:href="#7" y="8.684"></use><use xlink:href="#8" y="10.855"></use><use xlink:href="#9" y="13.026"></use><use xlink:href="#10" y="17.368"></use><use xlink:href="#11" y="19.539"></use><use xlink:href="#12" y="21.71"></use><use xlink:href="#15" y="26.052"></use><use xlink:href="#17" y="30.394"></use><use xlink:href="#19" y="32.565"></use><use xlink:href="#20" y="36.907000000000004"></use></svg><svg x="6800"><use xlink:href="#a"></use><use xlink:href="#1" y="0"></use><use xlink:href="#4" y="2.171"></use><use xlink:href="#5" y="4.342"></use><use xlink:href="#6" y="6.513"></use><use xlink:href="#7" y="8.684"></use><use xlink:href="#8" y="10.855"></use><use xlink:href="#9" y="13.026"></use><use xlink:href="#10" y="17.368"></use><use xlink:href="#11" y="19.539"></use><use xlink:href="#12" y="21.71"></use><use xlink:href="#15" y="26.052"></use><use xlink:href="#17" y="30.394"></use><use xlink:href="#19" y="32.565"></use><use xlink:href="#20" y="36.907000000000004"></use></svg><svg x="6900"><use xlink:href="#a"></use><use xlink:href="#1" y="0"></use><use xlink:href="#4" y="2.171"></use><use xlink:href="#5" y="4.342"></use><use xlink:href="#6" y="6.513"></use><use xlink:href="#7" y="8.684"></use><use xlink:href="#8" y="10.855"></use><use xlink:href="#9" y="13.026"></use><use xlink:href="#10" y="17.368"></use><use xlink:href="#11" y="19.539"></use><use xlink:href="#12" y="21.71"></use><use xlink:href="#15" y="26.052"></use><use xlink:href="#17" y="30.394"></use><use xlink:href="#19" y="32.565"></use><use xlink:href="#20" y="36.907000000000004"></use><use xlink:href="#18" y="39.078"></use></svg><svg x="7000"><use xlink:href="#a"></use><use xlink:href="#1" y="0"></use><use xlink:href="#4" y="2.171"></use><use xlink:href="#5" y="4.342"></use><use xlink:href="#6" y="6.513"></use><use xlink:href="#7" y="8.684"></use><use xlink:href="#8" y="10.855"></use><use xlink:href="#9" y="13.026"></use><use xlink:href="#10" y="17.368"></use><use xlink:href="#11" y="19.539"></use><use xlink:href="#12" y="21.71"></use><use xlink:href="#15" y="26.052"></use><use xlink:href="#17" y="30.394"></use><use xlink:href="#19" y="32.565"></use><use xlink:href="#20" y="36.907000000000004"></use><text x="0" y="40.748000000000005" class="c">[1]</text><text x="4.008" y="40.748000000000005" class="c">1</text></svg><svg x="7100"><use xlink:href="#a"></use><use xlink:href="#1" y="0"></use><use xlink:href="#4" y="2.171"></use><use xlink:href="#5" y="4.342"></use><use xlink:href="#6" y="6.513"></use><use xlink:href="#7" y="8.684"></use><use xlink:href="#8" y="10.855"></use><use xlink:href="#9" y="13.026"></use><use xlink:href="#10" y="17.368"></use><use xlink:href="#11" y="19.539"></use><use xlink:href="#12" y="21.71"></use><use xlink:href="#15" y="26.052"></use><use xlink:href="#17" y="30.394"></use><use xlink:href="#19" y="32.565"></use><use xlink:href="#20" y="36.907000000000004"></use><use xlink:href="#21" y="39.078"></use></svg><svg x="7200"><use xlink:href="#a"></use><use xlink:href="#1" y="0"></use><use xlink:href="#4" y="2.171"></use><use xlink:href="#5" y="4.342"></use><use xlink:href="#6" y="6.513"></use><use xlink:href="#7" y="8.684"></use><use xlink:href="#8" y="10.855"></use><use xlink:href="#9" y="13.026"></use><use xlink:href="#10" y="17.368"></use><use xlink:href="#11" y="19.539"></use><use xlink:href="#12" y="21.71"></use><use xlink:href="#15" y="26.052"></use><use xlink:href="#17" y="30.394"></use><use xlink:href="#19" y="32.565"></use><use xlink:href="#20" y="36.907000000000004"></use><use xlink:href="#21" y="39.078"></use></svg><svg x="7300"><use xlink:href="#a"></use><use xlink:href="#1" y="0"></use><use xlink:href="#4" y="2.171"></use><use xlink:href="#5" y="4.342"></use><use xlink:href="#6" y="6.513"></use><use xlink:href="#7" y="8.684"></use><use xlink:href="#8" y="10.855"></use><use xlink:href="#9" y="13.026"></use><use xlink:href="#10" y="17.368"></use><use xlink:href="#11" y="19.539"></use><use xlink:href="#12" y="21.71"></use><use xlink:href="#15" y="26.052"></use><use xlink:href="#17" y="30.394"></use><use xlink:href="#19" y="32.565"></use><use xlink:href="#20" y="36.907000000000004"></use><use xlink:href="#21" y="39.078"></use></svg><svg x="7400"><use xlink:href="#a"></use><use xlink:href="#1" y="0"></use><use xlink:href="#4" y="2.171"></use><use xlink:href="#5" y="4.342"></use><use xlink:href="#6" y="6.513"></use><use xlink:href="#7" y="8.684"></use><use xlink:href="#8" y="10.855"></use><use xlink:href="#9" y="13.026"></use><use xlink:href="#10" y="17.368"></use><use xlink:href="#11" y="19.539"></use><use xlink:href="#12" y="21.71"></use><use xlink:href="#15" y="26.052"></use><use xlink:href="#17" y="30.394"></use><use xlink:href="#19" y="32.565"></use><use xlink:href="#20" y="36.907000000000004"></use><use xlink:href="#21" y="39.078"></use><use xlink:href="#16" y="43.42"></use></svg><svg x="7500"><use xlink:href="#a"></use><use xlink:href="#1" y="0"></use><use xlink:href="#4" y="2.171"></use><use xlink:href="#5" y="4.342"></use><use xlink:href="#6" y="6.513"></use><use xlink:href="#7" y="8.684"></use><use xlink:href="#8" y="10.855"></use><use xlink:href="#9" y="13.026"></use><use xlink:href="#10" y="17.368"></use><use xlink:href="#11" y="19.539"></use><use xlink:href="#12" y="21.71"></use><use xlink:href="#15" y="26.052"></use><use xlink:href="#17" y="30.394"></use><use xlink:href="#19" y="32.565"></use><use xlink:href="#20" y="36.907000000000004"></use><use xlink:href="#21" y="39.078"></use><use xlink:href="#16" y="43.42"></use></svg><svg x="7600"><use xlink:href="#a"></use><use xlink:href="#1" y="0"></use><use xlink:href="#4" y="2.171"></use><use xlink:href="#5" y="4.342"></use><use xlink:href="#6" y="6.513"></use><use xlink:href="#7" y="8.684"></use><use xlink:href="#8" y="10.855"></use><use xlink:href="#9" y="13.026"></use><use xlink:href="#10" y="17.368"></use><use xlink:href="#11" y="19.539"></use><use xlink:href="#12" y="21.71"></use><use xlink:href="#15" y="26.052"></use><use xlink:href="#17" y="30.394"></use><use xlink:href="#19" y="32.565"></use><use xlink:href="#20" y="36.907000000000004"></use><use xlink:href="#21" y="39.078"></use><text x="0" y="45.09" class="c">RS</text><text x="3.006" y="45.09" class="c">12565</text><text x="9.017999999999999" y="45.09" class="c">(frame</text><text x="16.032" y="45.09" class="c">3)</text><text x="19.037999999999997" y="45.09" class="c">&gt;</text><text x="21.041999999999998" y="45.09" class="c">.</text></svg><svg x="7700"><use xlink:href="#a"></use><use xlink:href="#1" y="0"></use><use xlink:href="#4" y="2.171"></use><use xlink:href="#5" y="4.342"></use><use xlink:href="#6" y="6.513"></use><use xlink:href="#7" y="8.684"></use><use xlink:href="#8" y="10.855"></use><use xlink:href="#9" y="13.026"></use><use xlink:href="#10" y="17.368"></use><use xlink:href="#11" y="19.539"></use><use xlink:href="#12" y="21.71"></use><use xlink:href="#15" y="26.052"></use><use xlink:href="#17" y="30.394"></use><use xlink:href="#19" y="32.565"></use><use xlink:href="#20" y="36.907000000000004"></use><use xlink:href="#21" y="39.078"></use><use xlink:href="#22" y="43.42"></use></svg><svg x="7800"><use xlink:href="#a"></use><use xlink:href="#4" y="0"></use><use xlink:href="#5" y="2.171"></use><use xlink:href="#6" y="4.342"></use><use xlink:href="#7" y="6.513"></use><use xlink:href="#8" y="8.684"></use><use xlink:href="#9" y="10.855"></use><use xlink:href="#10" y="15.197"></use><use xlink:href="#11" y="17.368"></use><use xlink:href="#12" y="19.539"></use><use xlink:href="#15" y="23.880999999999997"></use><use xlink:href="#17" y="28.223000000000003"></use><use xlink:href="#19" y="30.394"></use><use xlink:href="#20" y="34.736"></use><use xlink:href="#21" y="36.907000000000004"></use><use xlink:href="#22" y="41.248999999999995"></use></svg><svg x="7900"><use xlink:href="#a"></use><use xlink:href="#4" y="0"></use><use xlink:href="#5" y="2.171"></use><use xlink:href="#6" y="4.342"></use><use xlink:href="#7" y="6.513"></use><use xlink:href="#8" y="8.684"></use><use xlink:href="#9" y="10.855"></use><use xlink:href="#10" y="15.197"></use><use xlink:href="#11" y="17.368"></use><use xlink:href="#12" y="19.539"></use><use xlink:href="#15" y="23.880999999999997"></use><use xlink:href="#17" y="28.223000000000003"></use><use xlink:href="#19" y="30.394"></use><use xlink:href="#20" y="34.736"></use><use xlink:href="#21" y="36.907000000000004"></use><use xlink:href="#22" y="41.248999999999995"></use></svg></svg></g></g></svg></svg>