<svg xmlns="http://www.w3.org/2000/svg" xmlns:xlink="http://www.w3.org/1999/xlink" width="1040" height="691.3"><rect width="1040" height="691.3" rx="0" ry="0" class="a"></rect><svg height="651.3" viewBox="0 0 100 65.13" width="1000" x="20" xmlns="http://www.w3.org/2000/svg" xmlns:xlink="http://www.w3.org/1999/xlink" y="20"><style>.a{fill:rgb(247,247,247)}.b{font-family:'Fira Code',Monaco,Consolas,Menlo,'Bitstream Vera Sans Mono','Powerline Symbols',monospace}.c{fill:rgb(101,123,131);white-space:pre}.d{fill:transparent}.e{fill:rgb(38,139,210);white-space:pre}.f{fill:rgb(181,137,0);font-weight:bold;white-space:pre}.g{fill:rgb(181,137,0);white-space:pre}.h{fill:rgb(101,123,131);font-weight:bold;white-space:pre}.i{fill:rgb(0,43,54);white-space:pre}.j{fill:rgb(42,161,152);white-space:pre}</style><g font-family="&#x27;Fira Code&#x27;,Monaco,Consolas,Menlo,&#x27;Bitstream Vera Sans Mono&#x27;,&#x27;Powerline Symbols&#x27;,monospace" font-size="1.67" class="b"><defs><symbol id="1"><text x="0" y="1.67" class="c">[1]</text><text x="4.008" y="1.67" class="c">&quot;&quot;</text></symbol><symbol id="a"><rect height="30" width="100" x="0" y="0" class="d"></rect></symbol></defs><rect height="65.13" width="100" class="a"></rect><svg x="0" y="0" width="100"><svg x="0"><use xlink:href="#a"></use><text x="0" y="1.67" class="c">[1]</text><text x="4.008" y="1.67" class="c">&quot;ready&quot;</text><text x="0" y="3.8409999999999997" class="c">$code</text><text x="0" y="6.012" class="c">[1]</text><text x="4.008" y="6.012" class="c">200</text><text x="0" y="10.354" class="c">$message</text><text x="0" y="12.525" class="c">[1]</text><text x="4.008" y="12.525" class="c">&quot;done</text><text x="10.02" y="12.525" class="c">callr-rs-result-30c51df458e3&quot;</text><text x="0" y="16.866999999999997" class="c">$result</text><text x="0" y="19.037999999999997" class="c">NULL</text><text x="0" y="23.380000000000003" class="c">$stdout</text><use xlink:href="#1" y="23.880999999999997"></use><text x="0" y="29.893" class="c">$stderr</text><use xlink:href="#1" y="30.394"></use><text x="0" y="36.406" class="c">$error</text><text x="0" y="38.577000000000005" class="e">&lt;callr_error/rlib_error_3_0/rlib_error/error&gt;</text><text x="0" y="40.748000000000005" class="f">Error</text><text x="5.01" y="40.748000000000005" class="c">:</text><text x="0" y="42.919" class="g">!</text><text x="2.004" y="42.919" class="c">error</text><text x="8.016" y="42.919" class="c">in</text><text x="11.021999999999998" y="42.919" class="c">callr</text><text x="17.034" y="42.919" class="c">subprocess</text><text x="0" y="45.09" class="h">Caused</text><text x="7.013999999999999" y="45.09" class="h">by</text><text x="10.02" y="45.09" class="h">error</text><text x="16.032" y="45.09" class="c">in</text><text x="19.037999999999997" y="45.09" class="c">`library(&quot;still-not&quot;)`:</text><text x="0" y="47.261" class="g">!</text><text x="2.004" y="47.261" class="c">there</text><text x="8.016" y="47.261" class="c">is</text><text x="11.021999999999998" y="47.261" class="c">no</text><text x="14.027999999999999" y="47.261" class="c">package</text><text x="22.043999999999997" y="47.261" class="c">called</text><text x="29.058" y="47.261" class="c">‘still-not’</text><text x="0" y="49.431999999999995" class="c">---</text><text x="0" y="51.603" class="c">Subprocess</text><text x="11.021999999999998" y="51.603" class="c">backtrace:</text><text x="0" y="53.774" class="i">1.</text><text x="3.006" y="53.774" class="c">base::</text><text x="9.017999999999999" y="53.774" class="j">library</text><text x="16.032" y="53.774" class="g">(&quot;still-not&quot;)</text><text x="0" y="55.945" class="i">2.</text><text x="3.006" y="55.945" class="c">base::</text><text x="9.017999999999999" y="55.945" class="j">stop</text><text x="13.026" y="55.945" class="g">(</text><text x="14.027999999999999" y="55.945" class="j">packageNotFoundError</text><text x="34.068" y="55.945" class="e">(</text><text x="35.06999999999999" y="55.945" class="c">package,</text><text x="44.087999999999994" y="55.945" class="c">lib.loc,</text><text x="53.105999999999995" y="55.945" class="j">sys.call()</text><text x="63.12599999999999" y="55.945" class="e">)</text><text x="64.128" y="55.945" class="g">)</text><text x="0" y="58.11600000000001" class="i">3.</text><text x="3.006" y="58.11600000000001" class="c">global</text><text x="10.02" y="58.11600000000001" class="c">(function</text><text x="20.04" y="58.11600000000001" class="c">(e)</text><text x="24.048" y="58.11600000000001" class="c">…</text><text x="0" y="62.458" class="c">attr(,&quot;class&quot;)</text><text x="0" y="64.629" class="c">[1]</text><text x="4.008" y="64.629" class="c">&quot;callr_session_result&quot;</text></svg></svg></g></svg></svg>