<svg xmlns="http://www.w3.org/2000/svg" xmlns:xlink="http://www.w3.org/1999/xlink" width="840" height="387.35999999999996"><rect width="840" height="387.35999999999996" rx="0" ry="0" class="a"></rect><svg height="347.35999999999996" viewBox="0 0 80 34.736" width="800" x="20" xmlns="http://www.w3.org/2000/svg" xmlns:xlink="http://www.w3.org/1999/xlink" y="20"><style>.a{fill:rgb(241,243,245)}.b{font-family:'Fira Code',Monaco,Consolas,Menlo,'Bitstream Vera Sans Mono','Powerline Symbols',monospace}.c{fill:rgb(23,36,49);white-space:pre}.d{fill:transparent}.e{fill:rgb(38,139,210);white-space:pre}.f{fill:rgb(181,137,0);font-weight:bold;white-space:pre}.g{fill:rgb(181,137,0);white-space:pre}.h{fill:rgb(23,36,49);font-weight:bold;white-space:pre}.i{fill:rgb(0,43,54);white-space:pre}.j{fill:rgb(133,153,0);white-space:pre}.k{fill:rgb(42,161,152);white-space:pre}.l{fill:rgb(220,50,47);white-space:pre}</style><g font-family="&#x27;Fira Code&#x27;,Monaco,Consolas,Menlo,&#x27;Bitstream Vera Sans Mono&#x27;,&#x27;Powerline Symbols&#x27;,monospace" font-size="1.67" class="b"><defs><symbol id="1"><text x="0" y="1.67" class="c">---</text></symbol><symbol id="a"><rect height="16" width="80" x="0" y="0" class="d"></rect></symbol></defs><rect height="34.736" width="80" class="a"></rect><svg x="0" y="0" width="80"><svg x="0"><use xlink:href="#a"></use><text x="0" y="1.67" class="e">&lt;callr_error/rlib_error_3_0/rlib_error/error&gt;</text><text x="0" y="3.8409999999999997" class="f">Error</text><text x="5.01" y="3.8409999999999997" class="c">:</text><text x="0" y="6.012" class="g">!</text><text x="2.004" y="6.012" class="c">error</text><text x="8.016" y="6.012" class="c">in</text><text x="11.021999999999998" y="6.012" class="c">callr</text><text x="17.034" y="6.012" class="c">subprocess</text><text x="0" y="8.183" class="h">Caused</text><text x="7.013999999999999" y="8.183" class="h">by</text><text x="10.02" y="8.183" class="h">error</text><text x="16.032" y="8.183" class="c">in</text><text x="19.037999999999997" y="8.183" class="c">`processx::run(&quot;ls&quot;,</text><text x="40.08" y="8.183" class="c">&quot;/not-this&quot;)`:</text><text x="0" y="10.354" class="g">!</text><text x="2.004" y="10.354" class="c">System</text><text x="9.017999999999999" y="10.354" class="c">command</text><text x="17.034" y="10.354" class="c">&#x27;ls&#x27;</text><text x="22.043999999999997" y="10.354" class="c">failed</text><use xlink:href="#1" y="10.855"></use><text x="0" y="14.696" class="c">Backtrace:</text><text x="0" y="16.866999999999997" class="i">1.</text><text x="3.006" y="16.866999999999997" class="c">rs</text><text x="5.01" y="16.866999999999997" class="j">$</text><text x="6.012" y="16.866999999999997" class="k">run</text><text x="9.017999999999999" y="16.866999999999997" class="g">(</text><text x="10.02" y="16.866999999999997" class="l">function</text><text x="18.035999999999998" y="16.866999999999997" class="e">()</text><text x="21.041999999999998" y="16.866999999999997" class="c">processx::</text><text x="31.061999999999998" y="16.866999999999997" class="k">run</text><text x="34.068" y="16.866999999999997" class="e">(</text><text x="35.06999999999999" y="16.866999999999997" class="g">&quot;ls&quot;</text><text x="39.077999999999996" y="16.866999999999997" class="c">,</text><text x="41.082" y="16.866999999999997" class="g">&quot;/not-this&quot;</text><text x="52.104" y="16.866999999999997" class="e">)</text><text x="53.105999999999995" y="16.866999999999997" class="g">)</text><text x="0" y="19.037999999999997" class="i">2.</text><text x="3.006" y="19.037999999999997" class="c">callr:::</text><text x="11.021999999999998" y="19.037999999999997" class="k">rs_run</text><text x="17.034" y="19.037999999999997" class="g">(</text><text x="18.035999999999998" y="19.037999999999997" class="c">self,</text><text x="24.048" y="19.037999999999997" class="c">private,</text><text x="33.065999999999995" y="19.037999999999997" class="c">func,</text><text x="39.077999999999996" y="19.037999999999997" class="c">args,</text><text x="45.089999999999996" y="19.037999999999997" class="c">package</text><text x="52.104" y="19.037999999999997" class="g">)</text><text x="0" y="21.209000000000003" class="i">3.</text><text x="3.006" y="21.209000000000003" class="c">callr:::</text><text x="11.021999999999998" y="21.209000000000003" class="k">throw</text><text x="16.032" y="21.209000000000003" class="g">(</text><text x="17.034" y="21.209000000000003" class="c">res</text><text x="20.04" y="21.209000000000003" class="j">$</text><text x="21.041999999999998" y="21.209000000000003" class="c">error</text><text x="26.052" y="21.209000000000003" class="g">)</text><use xlink:href="#1" y="21.71"></use><text x="0" y="25.550999999999995" class="c">Subprocess</text><text x="11.021999999999998" y="25.550999999999995" class="c">backtrace:</text><text x="0" y="27.722" class="i">1.</text><text x="3.006" y="27.722" class="c">processx::</text><text x="13.026" y="27.722" class="k">run</text><text x="16.032" y="27.722" class="g">(&quot;ls&quot;</text><text x="21.041999999999998" y="27.722" class="c">,</text><text x="23.045999999999996" y="27.722" class="g">&quot;/not-this&quot;)</text><text x="0" y="29.893" class="i">2.</text><text x="3.006" y="29.893" class="c">base::throw(new_process_error(res,</text><text x="38.07599999999999" y="29.893" class="c">call</text><text x="43.086" y="29.893" class="c">=</text><text x="45.089999999999996" y="29.893" class="c">sys.call(),</text><text x="57.114" y="29.893" class="c">echo</text><text x="62.123999999999995" y="29.893" class="c">=</text><text x="64.128" y="29.893" class="c">echo,</text><text x="70.13999999999999" y="29.893" class="c">…</text><text x="0" y="32.064" class="i">3.</text><text x="3.006" y="32.064" class="i">|</text><text x="5.01" y="32.064" class="i">base::signalCondition(cond)</text><text x="0" y="34.235" class="i">4.</text><text x="3.006" y="34.235" class="c">global</text><text x="10.02" y="34.235" class="c">(function</text><text x="20.04" y="34.235" class="c">(e)</text><text x="24.048" y="34.235" class="c">…</text></svg></svg></g></svg></svg>