<svg xmlns="http://www.w3.org/2000/svg" xmlns:xlink="http://www.w3.org/1999/xlink" width="840" height="191.97"><rect width="840" height="191.97" rx="0" ry="0" class="a"></rect><svg height="151.97" viewBox="0 0 80 15.197" width="800" x="20" xmlns="http://www.w3.org/2000/svg" xmlns:xlink="http://www.w3.org/1999/xlink" y="20"><style>.a{fill:rgb(241,243,245)}.b{font-family:'Fira Code',Monaco,Consolas,Menlo,'Bitstream Vera Sans Mono','Powerline Symbols',monospace}.c{fill:transparent}.d{fill:rgb(38,139,210);white-space:pre}.e{fill:rgb(181,137,0);font-weight:bold;white-space:pre}.f{fill:rgb(23,36,49);white-space:pre}.g{fill:rgb(181,137,0);white-space:pre}</style><g font-family="&#x27;Fira Code&#x27;,Monaco,Consolas,Menlo,&#x27;Bitstream Vera Sans Mono&#x27;,&#x27;Powerline Symbols&#x27;,monospace" font-size="1.67" class="b"><defs><symbol id="a"><rect height="7" width="80" x="0" y="0" class="c"></rect></symbol></defs><rect height="15.197" width="80" class="a"></rect><svg x="0" y="0" width="80"><svg x="0"><use xlink:href="#a"></use><text x="0" y="1.67" class="d">&lt;system_command_status_error/rlib_error_3_0/rlib_error/error&gt;</text><text x="0" y="3.8409999999999997" class="e">Error</text><text x="6.012" y="3.8409999999999997" class="f">in</text><text x="9.017999999999999" y="3.8409999999999997" class="f">`processx::run(&quot;ls&quot;,</text><text x="30.059999999999995" y="3.8409999999999997" class="f">&quot;/not-this&quot;)`:</text><text x="0" y="6.012" class="g">!</text><text x="2.004" y="6.012" class="f">System</text><text x="9.017999999999999" y="6.012" class="f">command</text><text x="17.034" y="6.012" class="f">&#x27;ls&#x27;</text><text x="22.043999999999997" y="6.012" class="f">failed</text><text x="0" y="8.183" class="f">---</text><text x="0" y="10.354" class="f">Exit</text><text x="5.01" y="10.354" class="f">status:</text><text x="13.026" y="10.354" class="f">2</text><text x="0" y="12.525" class="f">Stderr:</text><text x="0" y="14.696" class="f">ls:</text><text x="4.008" y="14.696" class="f">cannot</text><text x="11.021999999999998" y="14.696" class="f">access</text><text x="18.035999999999998" y="14.696" class="f">&#x27;/not-this&#x27;:</text><text x="31.061999999999998" y="14.696" class="f">No</text><text x="34.068" y="14.696" class="f">such</text><text x="39.077999999999996" y="14.696" class="f">file</text><text x="44.087999999999994" y="14.696" class="f">or</text><text x="47.093999999999994" y="14.696" class="f">directory</text></svg></svg></g></svg></svg>