<svg xmlns="http://www.w3.org/2000/svg" xmlns:xlink="http://www.w3.org/1999/xlink" width="840" height="365.65"><rect width="840" height="365.65" rx="0" ry="0" class="a"></rect><svg height="325.65" viewBox="0 0 80 32.565" width="800" x="20" xmlns="http://www.w3.org/2000/svg" xmlns:xlink="http://www.w3.org/1999/xlink" y="20"><style>.a{fill:rgb(241,243,245)}.b{font-family:'Fira Code',Monaco,Consolas,Menlo,'Bitstream Vera Sans Mono','Powerline Symbols',monospace}.c{fill:rgb(23,36,49);white-space:pre}.d{fill:transparent}.e{fill:rgb(38,139,210);white-space:pre}.f{fill:rgb(181,137,0);font-weight:bold;white-space:pre}.g{fill:rgb(181,137,0);white-space:pre}.h{fill:rgb(23,36,49);font-weight:bold;white-space:pre}.i{fill:rgb(0,43,54);white-space:pre}.j{fill:rgb(133,153,0);white-space:pre}.k{fill:rgb(42,161,152);white-space:pre}.l{fill:rgb(220,50,47);white-space:pre}</style><g font-family="&#x27;Fira Code&#x27;,Monaco,Consolas,Menlo,&#x27;Bitstream Vera Sans Mono&#x27;,&#x27;Powerline Symbols&#x27;,monospace" font-size="1.67" class="b"><defs><symbol id="1"><text x="0" y="1.67" class="c">---</text></symbol><symbol id="a"><rect height="15" width="80" x="0" y="0" class="d"></rect></symbol></defs><rect height="32.565" width="80" class="a"></rect><svg x="0" y="0" width="80"><svg x="0"><use xlink:href="#a"></use><text x="0" y="1.67" class="e">&lt;callr_error/rlib_error_3_0/rlib_error/error&gt;</text><text x="0" y="3.8409999999999997" class="f">Error</text><text x="5.01" y="3.8409999999999997" class="c">:</text><text x="0" y="6.012" class="g">!</text><text x="2.004" y="6.012" class="c">error</text><text x="8.016" y="6.012" class="c">in</text><text x="11.021999999999998" y="6.012" class="c">callr</text><text x="17.034" y="6.012" class="c">subprocess</text><text x="0" y="8.183" class="h">Caused</text><text x="7.013999999999999" y="8.183" class="h">by</text><text x="10.02" y="8.183" class="h">error</text><text x="16.032" y="8.183" class="c">in</text><text x="19.037999999999997" y="8.183" class="c">`library(&quot;not-a-package&quot;)`:</text><text x="0" y="10.354" class="g">!</text><text x="2.004" y="10.354" class="c">there</text><text x="8.016" y="10.354" class="c">is</text><text x="11.021999999999998" y="10.354" class="c">no</text><text x="14.027999999999999" y="10.354" class="c">package</text><text x="22.043999999999997" y="10.354" class="c">called</text><text x="29.058" y="10.354" class="c">‘not-a-package’</text><use xlink:href="#1" y="10.855"></use><text x="0" y="14.696" class="c">Backtrace:</text><text x="0" y="16.866999999999997" class="i">1.</text><text x="3.006" y="16.866999999999997" class="c">rs</text><text x="5.01" y="16.866999999999997" class="j">$</text><text x="6.012" y="16.866999999999997" class="k">run</text><text x="9.017999999999999" y="16.866999999999997" class="g">(</text><text x="10.02" y="16.866999999999997" class="l">function</text><text x="18.035999999999998" y="16.866999999999997" class="e">()</text><text x="21.041999999999998" y="16.866999999999997" class="k">library</text><text x="28.055999999999997" y="16.866999999999997" class="e">(</text><text x="29.058" y="16.866999999999997" class="g">&quot;not-a-package&quot;</text><text x="44.087999999999994" y="16.866999999999997" class="e">)</text><text x="45.089999999999996" y="16.866999999999997" class="g">)</text><text x="0" y="19.037999999999997" class="i">2.</text><text x="3.006" y="19.037999999999997" class="c">callr:::</text><text x="11.021999999999998" y="19.037999999999997" class="k">rs_run</text><text x="17.034" y="19.037999999999997" class="g">(</text><text x="18.035999999999998" y="19.037999999999997" class="c">self,</text><text x="24.048" y="19.037999999999997" class="c">private,</text><text x="33.065999999999995" y="19.037999999999997" class="c">func,</text><text x="39.077999999999996" y="19.037999999999997" class="c">args,</text><text x="45.089999999999996" y="19.037999999999997" class="c">package</text><text x="52.104" y="19.037999999999997" class="g">)</text><text x="0" y="21.209000000000003" class="i">3.</text><text x="3.006" y="21.209000000000003" class="c">callr:::</text><text x="11.021999999999998" y="21.209000000000003" class="k">throw</text><text x="16.032" y="21.209000000000003" class="g">(</text><text x="17.034" y="21.209000000000003" class="c">res</text><text x="20.04" y="21.209000000000003" class="j">$</text><text x="21.041999999999998" y="21.209000000000003" class="c">error</text><text x="26.052" y="21.209000000000003" class="g">)</text><use xlink:href="#1" y="21.71"></use><text x="0" y="25.550999999999995" class="c">Subprocess</text><text x="11.021999999999998" y="25.550999999999995" class="c">backtrace:</text><text x="0" y="27.722" class="i">1.</text><text x="3.006" y="27.722" class="c">base::</text><text x="9.017999999999999" y="27.722" class="k">library</text><text x="16.032" y="27.722" class="g">(&quot;not-a-package&quot;)</text><text x="0" y="29.893" class="i">2.</text><text x="3.006" y="29.893" class="c">base::</text><text x="9.017999999999999" y="29.893" class="k">stop</text><text x="13.026" y="29.893" class="g">(</text><text x="14.027999999999999" y="29.893" class="k">packageNotFoundError</text><text x="34.068" y="29.893" class="e">(</text><text x="35.06999999999999" y="29.893" class="c">package,</text><text x="44.087999999999994" y="29.893" class="c">lib.loc,</text><text x="53.105999999999995" y="29.893" class="k">sys.call()</text><text x="63.12599999999999" y="29.893" class="e">)</text><text x="64.128" y="29.893" class="g">)</text><text x="0" y="32.064" class="i">3.</text><text x="3.006" y="32.064" class="c">global</text><text x="10.02" y="32.064" class="c">(function</text><text x="20.04" y="32.064" class="c">(e)</text><text x="24.048" y="32.064" class="c">…</text></svg></svg></g></svg></svg>