<svg xmlns="http://www.w3.org/2000/svg" xmlns:xlink="http://www.w3.org/1999/xlink" width="1040" height="430.78000000000003"><rect width="1040" height="430.78000000000003" rx="0" ry="0" class="a"></rect><svg height="390.78000000000003" viewBox="0 0 100 39.078" width="1000" x="20" xmlns="http://www.w3.org/2000/svg" xmlns:xlink="http://www.w3.org/1999/xlink" y="20"><style>.a{fill:rgb(247,247,247)}.b{font-family:'Fira Code',Monaco,Consolas,Menlo,'Bitstream Vera Sans Mono','Powerline Symbols',monospace}.c{fill:transparent}.d{fill:rgb(101,123,131);white-space:pre}</style><g font-family="&#x27;Fira Code&#x27;,Monaco,Consolas,Menlo,&#x27;Bitstream Vera Sans Mono&#x27;,&#x27;Powerline Symbols&#x27;,monospace" font-size="1.67" class="b"><defs><symbol id="a"><rect height="19" width="100" x="0" y="0" class="c"></rect></symbol></defs><rect height="39.078" width="100" class="a"></rect><svg x="0" y="0" width="100"><svg x="0"><use xlink:href="#a"></use><text x="0" y="1.67" class="d">$status</text><text x="0" y="3.8409999999999997" class="d">[1]</text><text x="4.008" y="3.8409999999999997" class="d">0</text><text x="0" y="8.183" class="d">$stdout</text><text x="0" y="10.354" class="d">[1]</text><text x="4.008" y="10.354" class="d">&quot;clang</text><text x="11.021999999999998" y="10.354" class="d">-arch</text><text x="17.034" y="10.354" class="d">arm64\n&quot;</text><text x="0" y="14.696" class="d">$stderr</text><text x="0" y="16.866999999999997" class="d">[1]</text><text x="4.008" y="16.866999999999997" class="d">&quot;&quot;</text><text x="0" y="21.209000000000003" class="d">$timeout</text><text x="0" y="23.380000000000003" class="d">[1]</text><text x="4.008" y="23.380000000000003" class="d">FALSE</text><text x="0" y="27.722" class="d">$command</text><text x="0" y="29.893" class="d">[1]</text><text x="4.008" y="29.893" class="d">&quot;/Library/Frameworks/R.framework/Versions/4.2-arm64/Resources/bin/R&quot;</text><text x="0" y="32.064" class="d">[2]</text><text x="4.008" y="32.064" class="d">&quot;CMD&quot;</text><text x="0" y="34.235" class="d">[3]</text><text x="4.008" y="34.235" class="d">&quot;config&quot;</text><text x="0" y="36.406" class="d">[4]</text><text x="4.008" y="36.406" class="d">&quot;CC&quot;</text></svg></svg></g></svg></svg>